SplineFontDB: 3.2
FontName: PianoBQ
FullName: PianoBQ
FamilyName: PianoBQ
Weight: Regular
Copyright: Copyright (c) 2023, 
UComments: "2023-8-7: Created with FontForge (http://fontforge.org)"
Version: 00.01
ItalicAngle: 0
UnderlinePosition: -100
UnderlineWidth: 50
Ascent: 800
Descent: 200
InvalidEm: 0
LayerCount: 2
Layer: 0 0 "Back" 1
Layer: 1 0 "Fore" 0
XUID: [1021 780 1890904298 9729290]
StyleMap: 0x0000
FSType: 0
OS2Version: 0
OS2_WeightWidthSlopeOnly: 0
OS2_UseTypoMetrics: 1
CreationTime: 1691397505
ModificationTime: 1733559374
OS2TypoAscent: 0
OS2TypoAOffset: 1
OS2TypoDescent: 0
OS2TypoDOffset: 1
OS2TypoLinegap: 90
OS2WinAscent: 0
OS2WinAOffset: 1
OS2WinDescent: 0
OS2WinDOffset: 1
HheadAscent: 0
HheadAOffset: 1
HheadDescent: 0
HheadDOffset: 1
MarkAttachClasses: 1
DEI: 91125
Encoding: ISO8859-1
UnicodeInterp: none
NameList: AGL For New Fonts
DisplaySize: -96
AntiAlias: 0
FitToEm: 1
WidthSeparation: 150
WinInfo: 48 16 7
BeginPrivate: 0
EndPrivate
Grid
-1000 115 m 0
 2000 115 l 1024
  Named: "bottom line"
-1000 142 m 4
 2000 142 l 1028
  Named: "top line"
431.875 1300 m 0
 431.875 -700 l 1024
-862 128.799804688 m 0
 2138 128.799804688 l 1024
  Named: "middle"
199 687 m 0
 199 -1313 l 1024
EndSplineSet
BeginChars: 256 59

StartChar: A
Encoding: 65 65 0
Width: 858
VWidth: 1361
Flags: HW
LayerCount: 2
Fore
SplineSet
388.25 130.75 m 0
 388.25 153.666015625 391.6875 170.5 398.5625 181.25 c 128
 405.4375 192 416 197.375 430.25 197.375 c 0
 438.833007812 197.375 446.395507812 194.646484375 452.9375 189.1875 c 128
 459.478515625 183.728515625 464.291015625 176.291015625 467.375 166.875 c 1
 488.375 175 l 1
 477.791015625 202.916015625 458.375 216.875 430.125 216.875 c 0
 385.458007812 216.875 363.125 188.166015625 363.125 130.75 c 0
 363.125 102.5 369.020507812 80.833984375 380.8125 65.75 c 128
 392.603515625 50.666015625 409.458007812 43.125 431.375 43.125 c 0
 459.208007812 43.125 479.333007812 58.625 491.75 89.625 c 1
 471.875 97.75 l 1
 467.125 85.666015625 461.333007812 76.771484375 454.5 71.0625 c 128
 447.666015625 65.353515625 440.041015625 62.5 431.625 62.5 c 0
 416.958007812 62.5 406.0625 68.1875 398.9375 79.5625 c 128
 391.8125 90.9375 388.25 108 388.25 130.75 c 0
201.774414062 70.673828125 m 0
 184.821289062 133.94140625 273.009765625 212.44140625 398.580078125 246.087890625 c 0
 524.150390625 279.734375 639.772460938 255.845703125 656.725585938 192.576171875 c 0
 673.677734375 129.30859375 585.490234375 50.80859375 459.919921875 17.162109375 c 0
 334.349609375 -16.484375 218.7265625 7.404296875 201.774414062 70.673828125 c 0
EndSplineSet
EndChar

StartChar: B
Encoding: 66 66 1
Width: 858
VWidth: 1361
Flags: HW
LayerCount: 2
Fore
SplineSet
388.25 130.75 m 0
 388.25 153.666015625 391.6875 170.5 398.5625 181.25 c 128
 405.4375 192 416 197.375 430.25 197.375 c 0
 438.833007812 197.375 446.395507812 194.646484375 452.9375 189.1875 c 128
 459.478515625 183.728515625 464.291015625 176.291015625 467.375 166.875 c 1
 488.375 175 l 1
 477.791015625 202.916015625 458.375 216.875 430.125 216.875 c 0
 385.458007812 216.875 363.125 188.166015625 363.125 130.75 c 0
 363.125 102.5 369.020507812 80.833984375 380.8125 65.75 c 128
 392.603515625 50.666015625 409.458007812 43.125 431.375 43.125 c 0
 459.208007812 43.125 479.333007812 58.625 491.75 89.625 c 1
 471.875 97.75 l 1
 467.125 85.666015625 461.333007812 76.771484375 454.5 71.0625 c 128
 447.666015625 65.353515625 440.041015625 62.5 431.625 62.5 c 0
 416.958007812 62.5 406.0625 68.1875 398.9375 79.5625 c 128
 391.8125 90.9375 388.25 108 388.25 130.75 c 0
201.774414062 70.673828125 m 0
 184.821289062 133.94140625 273.009765625 212.44140625 398.580078125 246.087890625 c 0
 524.150390625 279.734375 639.772460938 255.845703125 656.725585938 192.576171875 c 0
 673.677734375 129.30859375 585.490234375 50.80859375 459.919921875 17.162109375 c 0
 334.349609375 -16.484375 218.7265625 7.404296875 201.774414062 70.673828125 c 0
141.75 172.875 m 1
 125 93.625 l 1
 171.25 94.125 l 1
 171.25 65.5 l 1
 119.25 65.5 l 1
 97.25 -35.375 l 1
 80 -35.375 l 1
 101.25 65.5 l 1
 50.25 65.5 l 1
 29.75 -35.375 l 1
 12.75 -35.375 l 1
 33.75 65.625 l 1
 0.25 65.5 l 1
 0 93.625 l 1
 40.25 93.875 l 1
 56.75 172.791015625 l 1
 12.75 172.875 l 1
 12.75 199.875 l 1
 62.25 199.875 l 1
 84.25 301.875 l 1
 101.25 301.875 l 1
 78.75 199.875 l 1
 130 199.875 l 1
 152 301.875 l 1
 169.25 301.875 l 1
 147.25 199.875 l 1
 181.25 199.875 l 1
 181.25 172.791015625 l 1
 141.75 172.875 l 1
73.75 172.791015625 m 1
 56.75 93.875 l 1
 107.5 93.625 l 1
 124.25 172.875 l 1
 73.75 172.791015625 l 1
-0.75 301.875 m 1025
EndSplineSet
EndChar

StartChar: C
Encoding: 67 67 2
Width: 859
VWidth: 1361
Flags: HW
LayerCount: 2
Fore
SplineSet
495.25 129.456054688 m 0
 495.25 157.123046875 488.520507812 177.810546875 475.0625 191.518554688 c 128
 461.603515625 205.227539062 441.166015625 212.081054688 413.75 212.081054688 c 2
 374.875 212.081054688 l 1
 374.875 43.4560546875 l 1
 421.125 43.4560546875 l 2
 444.958007812 43.4560546875 463.270507812 50.8935546875 476.0625 65.7685546875 c 128
 488.853515625 80.6435546875 495.25 101.873046875 495.25 129.456054688 c 0
471.25 129.456054688 m 0
 471.25 107.290039062 466.958007812 90.6650390625 458.375 79.5810546875 c 128
 449.791015625 68.498046875 436.666015625 62.9560546875 419 62.9560546875 c 2
 398.75 62.9560546875 l 1
 398.75 192.581054688 l 1
 413.875 192.581054688 l 2
 433.791015625 192.581054688 448.333007812 187.560546875 457.5 177.518554688 c 128
 466.666015625 167.477539062 471.25 151.456054688 471.25 129.456054688 c 0
202.086914062 70.9423828125 m 0
 185.133789062 134.209960938 273.322265625 212.709960938 398.892578125 246.356445312 c 0
 524.462890625 280.002929688 640.084960938 256.114257812 657.038085938 192.845703125 c 0
 673.990234375 129.577148438 585.802734375 51.078125 460.232421875 17.431640625 c 0
 334.662109375 -16.21484375 219.0390625 7.673828125 202.086914062 70.9423828125 c 0
-17.4375 302.143554688 m 1025
EndSplineSet
EndChar

StartChar: D
Encoding: 68 68 3
Width: 859
VWidth: 1361
Flags: HW
LayerCount: 2
Fore
SplineSet
511.9375 127.1875 m 0
 511.9375 154.853515625 505.208007812 175.541015625 491.75 189.25 c 128
 478.291015625 202.958984375 457.853515625 209.8125 430.4375 209.8125 c 2
 391.5625 209.8125 l 1
 391.5625 41.1875 l 1
 437.8125 41.1875 l 2
 461.645507812 41.1875 479.958007812 48.625 492.75 63.5 c 128
 505.541015625 78.375 511.9375 99.603515625 511.9375 127.1875 c 0
487.9375 127.1875 m 0
 487.9375 105.021484375 483.645507812 88.396484375 475.0625 77.3125 c 128
 466.478515625 66.228515625 453.353515625 60.6875 435.6875 60.6875 c 2
 415.4375 60.6875 l 1
 415.4375 190.3125 l 1
 430.5625 190.3125 l 2
 450.478515625 190.3125 465.020507812 185.291015625 474.1875 175.25 c 128
 483.353515625 165.208984375 487.9375 149.1875 487.9375 127.1875 c 0
218.774414062 68.673828125 m 0
 201.821289062 131.94140625 290.009765625 210.44140625 415.580078125 244.087890625 c 0
 541.150390625 277.734375 656.772460938 253.845703125 673.725585938 190.576171875 c 0
 690.677734375 127.30859375 602.490234375 48.80859375 476.919921875 15.162109375 c 0
 351.349609375 -18.484375 235.7265625 5.404296875 218.774414062 68.673828125 c 0
141.75 170.875 m 1
 125 91.625 l 1
 171.25 92.125 l 1
 171.25 63.5 l 1
 119.25 63.5 l 1
 97.25 -37.375 l 1
 80 -37.375 l 1
 101.25 63.5 l 1
 50.25 63.5 l 1
 29.75 -37.375 l 1
 12.75 -37.375 l 1
 33.75 63.625 l 1
 0.25 63.5 l 1
 0 91.625 l 1
 40.25 91.875 l 1
 56.75 170.791015625 l 1
 12.75 170.875 l 1
 12.75 197.875 l 1
 62.25 197.875 l 1
 84.25 299.875 l 1
 101.25 299.875 l 1
 78.75 197.875 l 1
 130 197.875 l 1
 152 299.875 l 1
 169.25 299.875 l 1
 147.25 197.875 l 1
 181.25 197.875 l 1
 181.25 170.791015625 l 1
 141.75 170.875 l 1
73.75 170.791015625 m 1
 56.75 91.875 l 1
 107.5 91.625 l 1
 124.25 170.875 l 1
 73.75 170.791015625 l 1
-0.75 299.875 m 1025
EndSplineSet
EndChar

StartChar: E
Encoding: 69 69 4
Width: 857
VWidth: 1361
Flags: HW
LayerCount: 2
Fore
SplineSet
370.0625 45.5 m 1
 490.0625 45.5 l 1
 490.0625 65 l 1
 393.9375 65 l 1
 393.9375 122.625 l 1
 477.4375 122.625 l 1
 477.4375 141.875 l 1
 393.9375 141.875 l 1
 393.9375 194.625 l 1
 484.9375 194.625 l 1
 484.9375 214.125 l 1
 370.0625 214.125 l 1
 370.0625 45.5 l 1
202.086914062 69.048828125 m 0
 185.134765625 132.31640625 273.322265625 210.81640625 398.892578125 244.462890625 c 0
 524.462890625 278.109375 640.0859375 254.220703125 657.038085938 190.951171875 c 0
 673.990234375 127.68359375 585.802734375 49.18359375 460.232421875 15.537109375 c 0
 334.662109375 -18.1083984375 219.040039062 5.7802734375 202.086914062 69.048828125 c 0
-17.4375 300.25 m 1025
EndSplineSet
EndChar

StartChar: F
Encoding: 70 70 5
Width: 859
VWidth: 1361
Flags: W
HStem: 126.25 61.75<395.562 480.062>
LayerCount: 2
Fore
SplineSet
395.5625 188 m 1
 483.0625 188 l 1
 483.0625 207.5 l 1
 371.6875 207.5 l 1
 371.6875 38.875 l 1
 395.5625 38.875 l 1
 395.5625 106.5 l 1
 480.0625 106.5 l 1
 480.0625 126.25 l 1
 395.5625 126.25 l 1
 395.5625 188 l 1
202.086914062 70.048828125 m 0
 185.134765625 133.31640625 273.322265625 211.81640625 398.892578125 245.462890625 c 0
 524.462890625 279.109375 640.0859375 255.220703125 657.038085938 191.951171875 c 0
 673.990234375 128.68359375 585.802734375 50.18359375 460.232421875 16.537109375 c 0
 334.662109375 -17.1083984375 219.040039062 6.7802734375 202.086914062 70.048828125 c 0
-17.4375 301.25 m 1025
EndSplineSet
EndChar

StartChar: G
Encoding: 71 71 6
Width: 858
VWidth: 1361
Flags: HW
LayerCount: 2
Fore
SplineSet
392.25 186.625 m 1
 479.75 186.625 l 1
 479.75 206.125 l 1
 368.375 206.125 l 1
 368.375 37.5 l 1
 392.25 37.5 l 1
 392.25 105.125 l 1
 476.75 105.125 l 1
 476.75 124.875 l 1
 392.25 124.875 l 1
 392.25 186.625 l 1
198.774414062 68.673828125 m 0
 181.822265625 131.94140625 270.009765625 210.44140625 395.580078125 244.087890625 c 0
 521.150390625 277.734375 636.7734375 253.845703125 653.725585938 190.576171875 c 0
 670.678710938 127.30859375 582.490234375 48.80859375 456.919921875 15.162109375 c 0
 331.349609375 -18.484375 215.727539062 5.404296875 198.774414062 68.673828125 c 0
141.75 170.875 m 1
 125 91.625 l 1
 171.25 92.125 l 1
 171.25 63.5 l 1
 119.25 63.5 l 1
 97.25 -37.375 l 1
 80 -37.375 l 1
 101.25 63.5 l 1
 50.25 63.5 l 1
 29.75 -37.375 l 1
 12.75 -37.375 l 1
 33.75 63.625 l 1
 0.25 63.5 l 1
 0 91.625 l 1
 40.25 91.875 l 1
 56.75 170.791015625 l 1
 12.75 170.875 l 1
 12.75 197.875 l 1
 62.25 197.875 l 1
 84.25 299.875 l 1
 101.25 299.875 l 1
 78.75 197.875 l 1
 130 197.875 l 1
 152 299.875 l 1
 169.25 299.875 l 1
 147.25 197.875 l 1
 181.25 197.875 l 1
 181.25 170.791015625 l 1
 141.75 170.875 l 1
73.75 170.791015625 m 1
 56.75 91.875 l 1
 107.5 91.625 l 1
 124.25 170.875 l 1
 73.75 170.791015625 l 1
-0.75 299.875 m 1025
EndSplineSet
EndChar

StartChar: H
Encoding: 72 72 7
Width: 859
VWidth: 1361
Flags: HW
LayerCount: 2
Fore
SplineSet
487.0625 63.875 m 1
 487.0625 135.375 l 1
 427.1875 135.375 l 1
 427.1875 115.375 l 1
 463.8125 115.375 l 1
 463.8125 73.375 l 1
 459.978515625 70.708984375 455.021484375 68.5 448.9375 66.75 c 128
 442.853515625 65 436.978515625 64.125 431.3125 64.125 c 0
 402.896484375 64.125 388.6875 86.875 388.6875 132.375 c 0
 388.6875 155.791015625 392.041015625 172.75 398.75 183.25 c 128
 405.458984375 193.75 415.853515625 199 429.9375 199 c 0
 447.271484375 199 459.271484375 189.375 465.9375 170.125 c 1
 487.3125 177.125 l 1
 477.728515625 204.708984375 458.521484375 218.5 429.6875 218.5 c 0
 407.603515625 218.5 391.0625 211.375 380.0625 197.125 c 128
 369.0625 182.875 363.5625 161.291015625 363.5625 132.375 c 0
 363.5625 104.875 369.3125 83.396484375 380.8125 67.9375 c 128
 392.3125 52.478515625 408.478515625 44.75 429.3125 44.75 c 0
 448.728515625 44.75 467.978515625 51.125 487.0625 63.875 c 1
202.086914062 69.048828125 m 0
 185.134765625 132.31640625 273.322265625 210.81640625 398.892578125 244.462890625 c 0
 524.462890625 278.109375 640.0859375 254.220703125 657.038085938 190.951171875 c 0
 673.990234375 127.68359375 585.802734375 49.18359375 460.232421875 15.537109375 c 0
 334.662109375 -18.1083984375 219.040039062 5.7802734375 202.086914062 69.048828125 c 0
-17.4375 300.25 m 1025
EndSplineSet
EndChar

StartChar: I
Encoding: 73 73 8
Width: 859
VWidth: 1361
Flags: HW
LayerCount: 2
Fore
SplineSet
489.75 66.5 m 1
 489.75 138 l 1
 429.875 138 l 1
 429.875 118 l 1
 466.5 118 l 1
 466.5 76 l 1
 462.666992188 73.333984375 457.708984375 71.125 451.625 69.375 c 128
 445.541992188 67.625 439.666992188 66.75 434 66.75 c 0
 405.583984375 66.75 391.375 89.5 391.375 135 c 0
 391.375 158.416015625 394.729492188 175.375 401.4375 185.875 c 128
 408.146484375 196.375 418.541992188 201.625 432.625 201.625 c 0
 449.958984375 201.625 461.958984375 192 468.625 172.75 c 1
 490 179.75 l 1
 480.416992188 207.333984375 461.208984375 221.125 432.375 221.125 c 0
 410.291992188 221.125 393.75 214 382.75 199.75 c 128
 371.75 185.5 366.25 163.916015625 366.25 135 c 0
 366.25 107.5 372 86.021484375 383.5 70.5625 c 128
 395 55.103515625 411.166992188 47.375 432 47.375 c 0
 451.416992188 47.375 470.666992188 53.75 489.75 66.5 c 1
204.774414062 71.673828125 m 0
 187.822265625 134.94140625 276.009765625 213.44140625 401.580078125 247.087890625 c 0
 527.150390625 280.734375 642.7734375 256.845703125 659.725585938 193.576171875 c 0
 676.678710938 130.30859375 588.490234375 51.80859375 462.919921875 18.162109375 c 0
 337.349609375 -15.484375 221.727539062 8.404296875 204.774414062 71.673828125 c 0
144.75 173.875 m 1
 128 94.625 l 1
 174.25 95.125 l 1
 174.25 66.5 l 1
 122.25 66.5 l 1
 100.25 -34.375 l 1
 83 -34.375 l 1
 104.25 66.5 l 1
 53.25 66.5 l 1
 32.75 -34.375 l 1
 15.75 -34.375 l 1
 36.75 66.625 l 1
 3.25 66.5 l 1
 3 94.625 l 1
 43.25 94.875 l 1
 59.75 173.791015625 l 1
 15.75 173.875 l 1
 15.75 200.875 l 1
 65.25 200.875 l 1
 87.25 302.875 l 1
 104.25 302.875 l 1
 81.75 200.875 l 1
 133 200.875 l 1
 155 302.875 l 1
 172.25 302.875 l 1
 150.25 200.875 l 1
 184.25 200.875 l 1
 184.25 173.791015625 l 1
 144.75 173.875 l 1
76.75 173.791015625 m 1
 59.75 94.875 l 1
 110.5 94.625 l 1
 127.25 173.875 l 1
 76.75 173.791015625 l 1
2.25 302.875 m 1025
EndSplineSet
EndChar

StartChar: J
Encoding: 74 74 9
Width: 859
VWidth: 1361
Flags: HW
LayerCount: 2
Fore
SplineSet
483.3125 50 m 5
 507.5625 50 l 5
 444.9375 218.625 l 5
 417.8125 218.625 l 5
 354.0625 50 l 5
 378.5625 50 l 5
 395.6875 97.75 l 5
 466.0625 97.75 l 5
 483.3125 50 l 5
431.0625 200.625 m 5
 438.3125 178.875 l 5
 459.9375 116.375 l 5
 402.0625 116.375 l 5
 420.9375 169.25 l 5
 429.5625 195.75 l 5
 431.0625 200.625 l 5
202.086914062 68.048828125 m 4
 185.134765625 131.31640625 273.322265625 209.81640625 398.892578125 243.462890625 c 4
 524.462890625 277.109375 640.0859375 253.220703125 657.038085938 189.951171875 c 4
 673.990234375 126.68359375 585.802734375 48.18359375 460.232421875 14.537109375 c 4
 334.662109375 -19.1083984375 219.040039062 4.7802734375 202.086914062 68.048828125 c 4
-17.4375 299.25 m 1029
EndSplineSet
EndChar

StartChar: K
Encoding: 75 75 10
Width: 859
VWidth: 1361
Flags: HW
LayerCount: 2
Fore
SplineSet
481 49.625 m 1
 505.25 49.625 l 1
 442.625 218.25 l 1
 415.5 218.25 l 1
 351.75 49.625 l 1
 376.25 49.625 l 1
 393.375 97.375 l 1
 463.75 97.375 l 1
 481 49.625 l 1
428.75 200.25 m 1
 436 178.5 l 1
 457.625 116 l 1
 399.75 116 l 1
 418.625 168.875 l 1
 427.25 195.375 l 1
 428.75 200.25 l 1
199.774414062 67.673828125 m 0
 182.822265625 130.94140625 271.009765625 209.44140625 396.580078125 243.087890625 c 0
 522.150390625 276.734375 637.7734375 252.845703125 654.725585938 189.576171875 c 4
 671.678710938 126.30859375 583.490234375 47.80859375 457.919921875 14.162109375 c 4
 332.349609375 -19.484375 216.727539062 4.404296875 199.774414062 67.673828125 c 0
141.75 169.875 m 1
 125 90.625 l 1
 171.25 91.125 l 1
 171.25 62.5 l 1
 119.25 62.5 l 1
 97.25 -38.375 l 1
 80 -38.375 l 1
 101.25 62.5 l 1
 50.25 62.5 l 1
 29.75 -38.375 l 1
 12.75 -38.375 l 1
 33.75 62.625 l 1
 0.25 62.5 l 1
 0 90.625 l 1
 40.25 90.875 l 1
 56.75 169.791015625 l 1
 12.75 169.875 l 1
 12.75 196.875 l 1
 62.25 196.875 l 1
 84.25 298.875 l 1
 101.25 298.875 l 1
 78.75 196.875 l 1
 130 196.875 l 1
 152 298.875 l 1
 169.25 298.875 l 1
 147.25 196.875 l 1
 181.25 196.875 l 1
 181.25 169.791015625 l 1
 141.75 169.875 l 1
73.75 169.791015625 m 1
 56.75 90.875 l 1
 107.5 90.625 l 1
 124.25 169.875 l 1
 73.75 169.791015625 l 1
-0.75 298.875 m 1025
EndSplineSet
EndChar

StartChar: L
Encoding: 76 76 11
Width: 859
VWidth: 1361
Flags: HW
LayerCount: 2
Fore
SplineSet
499.513671875 81.3935546875 m 0
 499.513671875 92.6435546875 495.701171875 101.977539062 488.076171875 109.393554688 c 128
 480.451171875 116.810546875 469.6796875 121.268554688 455.763671875 122.768554688 c 1
 466.096679688 124.852539062 474.263671875 129.310546875 480.263671875 136.143554688 c 128
 486.263671875 142.977539062 489.263671875 151.477539062 489.263671875 161.643554688 c 0
 489.263671875 188.893554688 468.596679688 202.518554688 427.263671875 202.518554688 c 2
 375.763671875 202.518554688 l 1
 375.763671875 33.8935546875 l 1
 434.763671875 33.8935546875 l 2
 455.096679688 33.8935546875 470.971679688 38.060546875 482.388671875 46.3935546875 c 128
 493.8046875 54.7275390625 499.513671875 66.3935546875 499.513671875 81.3935546875 c 0
465.263671875 158.643554688 m 0
 465.263671875 140.477539062 452.763671875 131.393554688 427.763671875 131.393554688 c 2
 399.638671875 131.393554688 l 1
 399.638671875 183.393554688 l 1
 427.513671875 183.393554688 l 2
 440.096679688 183.393554688 449.534179688 181.498046875 455.826171875 177.706054688 c 128
 462.1171875 173.915039062 465.263671875 167.560546875 465.263671875 158.643554688 c 0
475.388671875 83.5185546875 m 0
 475.388671875 73.2685546875 471.951171875 65.623046875 465.076171875 60.5810546875 c 128
 458.201171875 55.5400390625 447.471679688 53.0185546875 432.888671875 53.0185546875 c 2
 399.638671875 53.0185546875 l 1
 399.638671875 112.768554688 l 1
 431.138671875 112.768554688 l 2
 445.8046875 112.768554688 456.846679688 110.268554688 464.263671875 105.268554688 c 128
 471.6796875 100.268554688 475.388671875 93.0185546875 475.388671875 83.5185546875 c 0
199.663085938 58.9423828125 m 0
 182.709960938 122.209960938 270.8984375 200.709960938 396.46875 234.356445312 c 0
 522.0390625 268.002929688 637.661132812 244.114257812 654.614257812 180.845703125 c 0
 671.56640625 117.577148438 583.37890625 39.078125 457.80859375 5.431640625 c 0
 332.23828125 -28.21484375 216.615234375 -4.326171875 199.663085938 58.9423828125 c 0
-19.861328125 290.143554688 m 1025
EndSplineSet
EndChar

StartChar: M
Encoding: 77 77 12
Width: 858
VWidth: 1361
Flags: HW
LayerCount: 2
Fore
SplineSet
388.25 130.75 m 0
 388.25 153.666015625 391.6875 170.5 398.5625 181.25 c 0
 405.4375 192 416 197.375 430.25 197.375 c 0
 438.833007812 197.375 446.395507812 194.646484375 452.9375 189.1875 c 0
 459.478515625 183.728515625 464.291015625 176.291015625 467.375 166.875 c 1
 488.375 175 l 1
 477.791015625 202.916015625 458.375 216.875 430.125 216.875 c 0
 385.458007812 216.875 363.125 188.166015625 363.125 130.75 c 0
 363.125 102.5 369.020507812 80.833984375 380.8125 65.75 c 0
 392.603515625 50.666015625 409.458007812 43.125 431.375 43.125 c 0
 459.208007812 43.125 479.333007812 58.625 491.75 89.625 c 1
 471.875 97.75 l 1
 467.125 85.666015625 461.333007812 76.771484375 454.5 71.0625 c 0
 447.666015625 65.353515625 440.041015625 62.5 431.625 62.5 c 0
 416.958007812 62.5 406.0625 68.1875 398.9375 79.5625 c 0
 391.8125 90.9375 388.25 108 388.25 130.75 c 0
201.774414062 70.673828125 m 0
 197.960672879 84.9063762984 199.467738533 99.9097779995 205.524217033 115 c 1
 0 115 l 1
 0 142 l 1
 221.091192752 142 l 1
 253.037478009 184.572177159 318.138352974 224.53358217 398.580078125 246.087890625 c 0
 524.150390625 279.734375 639.772460938 255.845703125 656.725585938 192.576171875 c 0
 661.065330098 176.379693669 658.514660802 159.18494615 650.210344533 142 c 1
 861 142 l 1
 861 115 l 1
 632.465122727 115 l 1
 599.032404447 74.7980687285 536.412040547 37.658123317 459.919921875 17.162109375 c 0
 334.349609375 -16.484375 218.7265625 7.404296875 201.774414062 70.673828125 c 0
EndSplineSet
EndChar

StartChar: N
Encoding: 78 78 13
Width: 858
VWidth: 1361
Flags: HW
LayerCount: 2
Fore
SplineSet
-0.75 301.875 m 1029
-0.75 301.875 m 1029
-0.75 301.875 m 1029
124.25 172.875 m 1
 73.75 172.791015625 l 1
 67.1170337829 142 l 1
 117.724369085 142 l 1
 124.25 172.875 l 1
107.5 93.625 m 1
 112.017744479 115 l 1
 61.3007239203 115 l 1
 56.75 93.875 l 1
 107.5 93.625 l 1
181.25 172.791015625 m 1
 141.75 172.875 l 1
 135.224369085 142 l 1
 221.091192752 142 l 1
 253.037478009 184.572177159 318.138352974 224.53358217 398.580078125 246.087890625 c 0
 437.167529819 256.427373458 474.81555114 261.333708181 508.949586069 261.333708181 c 0
 585.893667075 261.333708181 644.982115027 236.403130018 656.725585938 192.576171875 c 0
 658.129696708 187.33585156 658.812501106 181.991029822 658.812501106 176.575849741 c 0
 658.812501106 165.254105189 655.827825016 153.624810096 650.210344533 142 c 1
 858 142 l 1
 858 115 l 1
 632.465122727 115 l 1
 599.032404447 74.7980687285 536.412040547 37.658123317 459.919921875 17.162109375 c 0
 421.332470181 6.82262654152 383.684356641 1.91629181949 349.550222291 1.91629181949 c 0
 272.605917172 1.91629181949 213.517208506 26.8468699816 201.774414062 70.673828125 c 0
 200.370165078 75.9143623792 199.687294764 81.2594065899 199.687294764 86.6748134939 c 0
 199.687294764 95.9668840917 201.697780733 105.466114387 205.524217033 115 c 1
 129.517744479 115 l 1
 125 93.625 l 1
 171.25 94.125 l 1
 171.25 65.5 l 1
 119.25 65.5 l 1
 97.25 -35.375 l 1
 80 -35.375 l 1
 101.25 65.5 l 1
 50.25 65.5 l 1
 29.75 -35.375 l 1
 12.75 -35.375 l 1
 33.75 65.625 l 1
 0.25 65.5 l 1
 0 93.625 l 1
 40.25 93.875 l 1
 44.6668790991 115 l 1
 0 115 l 1
 0 142 l 1
 50.3121210246 142 l 1
 56.75 172.791015625 l 1
 12.75 172.875 l 1
 12.75 199.875 l 1
 62.25 199.875 l 1
 84.25 301.875 l 1
 101.25 301.875 l 1
 78.75 199.875 l 1
 130 199.875 l 1
 152 301.875 l 1
 169.25 301.875 l 1
 147.25 199.875 l 1
 181.25 199.875 l 1
 181.25 172.791015625 l 1
398.9375 79.5625 m 0
 391.8125 90.9375 388.25 108 388.25 130.75 c 0
 388.25 153.666015625 391.6875 170.5 398.5625 181.25 c 0
 405.4375 192 416 197.375 430.25 197.375 c 0
 438.833007812 197.375 446.395507812 194.646484375 452.9375 189.1875 c 0
 459.478515625 183.728515625 464.291015625 176.291015625 467.375 166.875 c 1
 488.375 175 l 1
 477.791015625 202.916015625 458.375 216.875 430.125 216.875 c 0
 385.458007812 216.875 363.125 188.166015625 363.125 130.75 c 0
 363.125 102.5 369.020507812 80.833984375 380.8125 65.75 c 0
 392.603515625 50.666015625 409.458007812 43.125 431.375 43.125 c 0
 459.208007812 43.125 479.333007812 58.625 491.75 89.625 c 1
 471.875 97.75 l 1
 467.125 85.666015625 461.333007812 76.771484375 454.5 71.0625 c 0
 447.666015625 65.353515625 440.041015625 62.5 431.625 62.5 c 0
 416.958007812 62.5 406.0625 68.1875 398.9375 79.5625 c 0
EndSplineSet
EndChar

StartChar: O
Encoding: 79 79 14
Width: 859
VWidth: 1361
Flags: HW
LayerCount: 2
Fore
SplineSet
-17.4375 302.143554688 m 1029
202.086914062 70.9423828125 m 0
 198.295797542 85.0904977236 199.762544739 100.000347258 205.729409044 115 c 1
 0 115 l 1
 0 142 l 1
 221.202634239 142 l 1
 253.07630051 184.672615147 318.281726637 224.756819565 398.892578125 246.356445312 c 0
 524.462890625 280.002929688 640.084960938 256.114257812 657.038085938 192.845703125 c 0
 661.400483573 176.564427962 658.80034405 159.274563687 650.392328712 142 c 1
 859 142 l 1
 859 115 l 1
 632.553354131 115 l 1
 599.065339027 74.901553694 536.553835161 37.8819141688 460.232421875 17.431640625 c 0
 334.662109375 -16.21484375 219.0390625 7.673828125 202.086914062 70.9423828125 c 0
471.25 129.456054688 m 0
 471.25 107.290039062 466.958007812 90.6650390625 458.375 79.5810546875 c 0
 449.791015625 68.498046875 436.666015625 62.9560546875 419 62.9560546875 c 2
 398.75 62.9560546875 l 1
 398.75 192.581054688 l 1
 413.875 192.581054688 l 2
 433.791015625 192.581054688 448.333007812 187.560546875 457.5 177.518554688 c 0
 466.666015625 167.477539062 471.25 151.456054688 471.25 129.456054688 c 0
495.25 129.456054688 m 0
 495.25 157.123046875 488.520507812 177.810546875 475.0625 191.518554688 c 0
 461.603515625 205.227539062 441.166015625 212.081054688 413.75 212.081054688 c 2
 374.875 212.081054688 l 1
 374.875 43.4560546875 l 1
 421.125 43.4560546875 l 2
 444.958007812 43.4560546875 463.270507812 50.8935546875 476.0625 65.7685546875 c 0
 488.853515625 80.6435546875 495.25 101.873046875 495.25 129.456054688 c 0
EndSplineSet
EndChar

StartChar: P
Encoding: 80 80 15
Width: 859
VWidth: 1361
Flags: HW
LayerCount: 2
Fore
SplineSet
-0.75 299.875 m 1029
218.774414062 68.673828125 m 0
 214.792224522 83.5350108159 216.611249354 99.2366462235 223.353298765 115 c 1
 129.940457413 115 l 1
 125 91.625 l 1
 171.25 92.125 l 1
 171.25 63.5 l 1
 119.25 63.5 l 1
 97.25 -37.375 l 1
 80 -37.375 l 1
 101.25 63.5 l 1
 50.25 63.5 l 1
 29.75 -37.375 l 1
 12.75 -37.375 l 1
 33.75 63.625 l 1
 0.25 63.5 l 1
 0 91.625 l 1
 40.25 91.875 l 1
 45.0850451677 115 l 1
 0 115 l 1
 0 142 l 1
 50.7302870932 142 l 1
 56.75 170.791015625 l 1
 12.75 170.875 l 1
 12.75 197.875 l 1
 62.25 197.875 l 1
 84.25 299.875 l 1
 101.25 299.875 l 1
 78.75 197.875 l 1
 130 197.875 l 1
 152 299.875 l 1
 169.25 299.875 l 1
 147.25 197.875 l 1
 181.25 197.875 l 1
 181.25 170.791015625 l 1
 141.75 170.875 l 1
 135.647082019 142 l 1
 239.617859257 142 l 1
 272.082189148 183.820462316 336.399295098 222.8714508 415.580078125 244.087890625 c 0
 541.150390625 277.734375 656.772460938 253.845703125 673.725585938 190.576171875 c 0
 677.896974383 175.008018651 675.702191899 158.517547322 668.150772088 142 c 1
 859 142 l 1
 859 115 l 1
 651.102228138 115 l 1
 618.10290741 74.032900316 554.67894657 35.9975899701 476.919921875 15.162109375 c 0
 351.349609375 -18.484375 235.7265625 5.404296875 218.774414062 68.673828125 c 0
487.9375 127.1875 m 0
 487.9375 105.021484375 483.645507812 88.396484375 475.0625 77.3125 c 0
 466.478515625 66.228515625 453.353515625 60.6875 435.6875 60.6875 c 2
 415.4375 60.6875 l 1
 415.4375 190.3125 l 1
 430.5625 190.3125 l 2
 450.478515625 190.3125 465.020507812 185.291015625 474.1875 175.25 c 0
 483.353515625 165.208984375 487.9375 149.1875 487.9375 127.1875 c 0
511.9375 127.1875 m 0
 511.9375 154.853515625 505.208007812 175.541015625 491.75 189.25 c 0
 478.291015625 202.958984375 457.853515625 209.8125 430.4375 209.8125 c 2
 391.5625 209.8125 l 1
 391.5625 41.1875 l 1
 437.8125 41.1875 l 2
 461.645507812 41.1875 479.958007812 48.625 492.75 63.5 c 0
 505.541015625 78.375 511.9375 99.603515625 511.9375 127.1875 c 0
61.7315616879 115 m 1
 56.75 91.875 l 1
 107.5 91.625 l 1
 112.440457413 115 l 1
 61.7315616879 115 l 1
67.5478715506 142 m 1
 118.147082019 142 l 1
 124.25 170.875 l 1
 73.75 170.791015625 l 1
 67.5478715506 142 l 1
EndSplineSet
EndChar

StartChar: Q
Encoding: 81 81 16
Width: 857
VWidth: 1361
Flags: HW
LayerCount: 2
Fore
SplineSet
-17.4375 300.25 m 1029
370.0625 45.5 m 1
 490.0625 45.5 l 1
 490.0625 65 l 1
 393.9375 65 l 1
 393.9375 122.625 l 1
 477.4375 122.625 l 1
 477.4375 141.875 l 1
 393.9375 141.875 l 1
 393.9375 194.625 l 1
 484.9375 194.625 l 1
 484.9375 214.125 l 1
 370.0625 214.125 l 1
 370.0625 45.5 l 1
202.086914062 69.048828125 m 0
 198.136531011 83.7921610571 199.895613368 99.3626699127 206.506735416 115 c 1
 0 115 l 1
 0 142 l 1
 222.640596613 142 l 1
 255.010804701 183.961904719 319.47517289 223.183048032 398.892578125 244.462890625 c 0
 524.462890625 278.109375 640.0859375 254.220703125 657.038085938 190.951171875 c 0
 661.24104188 175.265204729 658.98110874 158.642907146 651.290913314 142 c 1
 857 142 l 1
 857 115 l 1
 634.1117467 115 l 1
 601.028146873 74.1759006812 537.754133896 36.309002192 460.232421875 15.537109375 c 0
 334.662109375 -18.1083984375 219.040039062 5.7802734375 202.086914062 69.048828125 c 0
EndSplineSet
EndChar

StartChar: R
Encoding: 82 82 17
Width: 859
VWidth: 1361
Flags: W
HStem: 126.25 61.75<395.562 480.062>
LayerCount: 2
Fore
SplineSet
-17.4375 301.25 m 1029
202.086914062 70.048828125 m 0
 198.220747691 84.4778536766 199.823205839 99.6991626057 206.090539416 115 c 1
 0 115 l 1
 0 142 l 1
 221.875649691 142 l 1
 253.988097472 184.337968946 318.844625996 224.014093398 398.892578125 245.462890625 c 0
 524.462890625 279.109375 640.0859375 255.220703125 657.038085938 191.951171875 c 0
 661.325219534 175.951042999 658.88799149 158.976702065 650.822324525 142 c 1
 859 142 l 1
 859 115 l 1
 633.29482984 115 l 1
 599.993297233 74.5582958892 537.120780745 37.139295623 460.232421875 16.537109375 c 0
 334.662109375 -17.1083984375 219.040039062 6.7802734375 202.086914062 70.048828125 c 0
395.5625 188 m 1
 483.0625 188 l 1
 483.0625 207.5 l 1
 371.6875 207.5 l 1
 371.6875 38.875 l 1
 395.5625 38.875 l 1
 395.5625 106.5 l 1
 480.0625 106.5 l 1
 480.0625 126.25 l 1
 395.5625 126.25 l 1
 395.5625 188 l 1
EndSplineSet
EndChar

StartChar: S
Encoding: 83 83 18
Width: 858
VWidth: 1361
Flags: HW
LayerCount: 2
Fore
SplineSet
-0.75 299.875 m 1029
198.774414062 68.673828125 m 0
 194.792453911 83.5350108159 196.611600367 99.2366462235 203.353701609 115 c 1
 129.940457413 115 l 1
 125 91.625 l 1
 171.25 92.125 l 1
 171.25 63.5 l 1
 119.25 63.5 l 1
 97.25 -37.375 l 1
 80 -37.375 l 1
 101.25 63.5 l 1
 50.25 63.5 l 1
 29.75 -37.375 l 1
 12.75 -37.375 l 1
 33.75 63.625 l 1
 0.25 63.5 l 1
 0 91.625 l 1
 40.25 91.875 l 1
 45.0850451677 115 l 1
 0 115 l 1
 0 142 l 1
 50.7302870932 142 l 1
 56.75 170.791015625 l 1
 12.75 170.875 l 1
 12.75 197.875 l 1
 62.25 197.875 l 1
 84.25 299.875 l 1
 101.25 299.875 l 1
 78.75 197.875 l 1
 130 197.875 l 1
 152 299.875 l 1
 169.25 299.875 l 1
 147.25 197.875 l 1
 181.25 197.875 l 1
 181.25 170.791015625 l 1
 141.75 170.875 l 1
 135.647082019 142 l 1
 219.618289606 142 l 1
 252.082577447 183.820462316 316.399295098 222.8714508 395.580078125 244.087890625 c 0
 521.150390625 277.734375 636.7734375 253.845703125 653.725585938 190.576171875 c 0
 657.897214685 175.008018651 655.70255424 158.517547322 648.151181859 142 c 1
 858 142 l 1
 858 115 l 1
 631.10265589 115 l 1
 598.103281889 74.032900316 534.67894657 35.9975899701 456.919921875 15.162109375 c 0
 331.349609375 -18.484375 215.727539062 5.404296875 198.774414062 68.673828125 c 0
392.25 186.625 m 1
 479.75 186.625 l 1
 479.75 206.125 l 1
 368.375 206.125 l 1
 368.375 37.5 l 1
 392.25 37.5 l 1
 392.25 105.125 l 1
 476.75 105.125 l 1
 476.75 124.875 l 1
 392.25 124.875 l 1
 392.25 186.625 l 1
61.7315616879 115 m 1
 56.75 91.875 l 1
 107.5 91.625 l 1
 112.440457413 115 l 1
 61.7315616879 115 l 1
67.5478715506 142 m 1
 118.147082019 142 l 1
 124.25 170.875 l 1
 73.75 170.791015625 l 1
 67.5478715506 142 l 1
EndSplineSet
EndChar

StartChar: T
Encoding: 84 84 19
Width: 859
VWidth: 1361
Flags: HW
LayerCount: 2
Fore
SplineSet
-17.4375 300.25 m 1029
202.086914062 69.048828125 m 0
 198.136531011 83.7921610571 199.895613368 99.3626699127 206.506735416 115 c 1
 0 115 l 1
 0 142 l 1
 222.640596613 142 l 1
 255.010804701 183.961904719 319.47517289 223.183048032 398.892578125 244.462890625 c 0
 524.462890625 278.109375 640.0859375 254.220703125 657.038085938 190.951171875 c 0
 661.24104188 175.265204729 658.98110874 158.642907146 651.290913314 142 c 1
 859 142 l 1
 859 115 l 1
 634.1117467 115 l 1
 601.028146873 74.1759006812 537.754133896 36.309002192 460.232421875 15.537109375 c 0
 334.662109375 -18.1083984375 219.040039062 5.7802734375 202.086914062 69.048828125 c 0
487.0625 63.875 m 1
 487.0625 135.375 l 1
 427.1875 135.375 l 1
 427.1875 115.375 l 1
 463.8125 115.375 l 1
 463.8125 73.375 l 2
 459.978515625 70.708984375 455.021484375 68.5 448.9375 66.75 c 0
 442.853515625 65 436.978515625 64.125 431.3125 64.125 c 0
 402.896484375 64.125 388.6875 86.875 388.6875 132.375 c 0
 388.6875 155.791015625 392.041015625 172.75 398.75 183.25 c 0
 405.458984375 193.75 415.853515625 199 429.9375 199 c 0
 447.271484375 199 459.271484375 189.375 465.9375 170.125 c 1
 487.3125 177.125 l 1
 477.728515625 204.708984375 458.521484375 218.5 429.6875 218.5 c 0
 407.603515625 218.5 391.0625 211.375 380.0625 197.125 c 0
 369.0625 182.875 363.5625 161.291015625 363.5625 132.375 c 0
 363.5625 104.875 369.3125 83.396484375 380.8125 67.9375 c 0
 392.3125 52.478515625 408.478515625 44.75 429.3125 44.75 c 0
 448.728515625 44.75 467.978515625 51.125 487.0625 63.875 c 1
EndSplineSet
EndChar

StartChar: U
Encoding: 85 85 20
Width: 859
VWidth: 1361
Flags: HW
LayerCount: 2
Fore
SplineSet
2.25 302.875 m 1029
69.9016148991 142 m 1
 120.513012618 142 l 1
 127.25 173.875 l 1
 76.75 173.791015625 l 1
 69.9016148991 142 l 1
64.0853050365 115 m 1
 59.75 94.875 l 1
 110.5 94.625 l 1
 114.806388013 115 l 1
 64.0853050365 115 l 1
489.75 66.5 m 1
 489.75 138 l 1
 429.875 138 l 1
 429.875 118 l 1
 466.5 118 l 1
 466.5 76 l 2
 462.666992188 73.333984375 457.708984375 71.125 451.625 69.375 c 0
 445.541992188 67.625 439.666992188 66.75 434 66.75 c 0
 405.583984375 66.75 391.375 89.5 391.375 135 c 0
 391.375 158.416015625 394.729492188 175.375 401.4375 185.875 c 0
 408.146484375 196.375 418.541992188 201.625 432.625 201.625 c 0
 449.958984375 201.625 461.958984375 192 468.625 172.75 c 1
 490 179.75 l 1
 480.416992188 207.333984375 461.208984375 221.125 432.375 221.125 c 0
 410.291992188 221.125 393.75 214 382.75 199.75 c 0
 371.75 185.5 366.25 163.916015625 366.25 135 c 0
 366.25 107.5 372 86.021484375 383.5 70.5625 c 0
 395 55.103515625 411.166992188 47.375 432 47.375 c 0
 451.416992188 47.375 470.666992188 53.75 489.75 66.5 c 1
204.774414062 71.673828125 m 0
 201.04514214 85.5919461454 202.404081425 100.247234024 208.129873617 115 c 1
 132.306388013 115 l 1
 128 94.625 l 1
 174.25 95.125 l 1
 174.25 66.5 l 1
 122.25 66.5 l 1
 100.25 -34.375 l 1
 83 -34.375 l 1
 104.25 66.5 l 1
 53.25 66.5 l 1
 32.75 -34.375 l 1
 15.75 -34.375 l 1
 36.75 66.625 l 1
 3.25 66.5 l 1
 3 94.625 l 1
 43.25 94.875 l 1
 47.4577960648 115 l 1
 0 115 l 1
 0 142 l 1
 53.1030379903 142 l 1
 59.75 173.791015625 l 1
 15.75 173.875 l 1
 15.75 200.875 l 1
 65.25 200.875 l 1
 87.25 302.875 l 1
 104.25 302.875 l 1
 81.75 200.875 l 1
 133 200.875 l 1
 155 302.875 l 1
 172.25 302.875 l 1
 150.25 200.875 l 1
 184.25 200.875 l 1
 184.25 173.791015625 l 1
 144.75 173.875 l 1
 138.013012618 142 l 1
 223.347677456 142 l 1
 255.019847145 184.945562402 320.50880452 225.364895067 401.580078125 247.087890625 c 0
 527.150390625 280.734375 642.7734375 256.845703125 659.725585938 193.576171875 c 0
 664.149763741 177.065527685 661.413493388 159.517511366 652.721035042 142 c 1
 859 142 l 1
 859 115 l 1
 634.627375201 115 l 1
 600.992710823 75.1829303127 538.777402045 38.4880723392 462.919921875 18.162109375 c 0
 337.349609375 -15.484375 221.727539062 8.404296875 204.774414062 71.673828125 c 0
EndSplineSet
EndChar

StartChar: V
Encoding: 86 86 21
Width: 859
VWidth: 1361
Flags: HW
LayerCount: 2
Fore
SplineSet
-17.4375 299.25 m 1029
202.086914062 68.048828125 m 0
 198.052329672 83.106411181 199.973196001 99.0268080198 206.936083009 115 c 1
 0 115 l 1
 0 142 l 1
 223.418495584 142 l 1
 256.036461933 183.584222807 320.106374459 222.352178086 398.892578125 243.462890625 c 0
 524.462890625 277.109375 640.0859375 253.220703125 657.038085938 189.951171875 c 0
 661.156860051 174.579382044 659.06904532 158.308394041 651.746454963 142 c 1
 859 142 l 1
 859 115 l 1
 634.915628116 115 l 1
 602.05987438 73.7950534087 538.386738259 35.4785081235 460.232421875 14.537109375 c 0
 334.662109375 -19.1083984375 219.040039062 4.7802734375 202.086914062 68.048828125 c 0
431.0625 200.625 m 1
 438.3125 178.875 l 1
 459.9375 116.375 l 1
 402.0625 116.375 l 1
 420.9375 169.25 l 1
 429.5625 195.75 l 1
 431.0625 200.625 l 1
483.3125 50 m 1
 507.5625 50 l 1
 444.9375 218.625 l 1
 417.8125 218.625 l 1
 354.0625 50 l 1
 378.5625 50 l 1
 395.6875 97.75 l 1
 466.0625 97.75 l 1
 483.3125 50 l 1
EndSplineSet
EndChar

StartChar: W
Encoding: 87 87 22
Width: 859
VWidth: 1361
Flags: HW
LayerCount: 2
Fore
SplineSet
-0.75 298.875 m 1029
112.65181388 115 m 1
 61.9469805717 115 l 1
 56.75 90.875 l 1
 107.5 90.625 l 1
 112.65181388 115 l 1
118.358438486 142 m 1
 124.25 169.875 l 1
 73.75 169.791015625 l 1
 67.7632904344 142 l 1
 118.358438486 142 l 1
199.774414062 67.673828125 m 0
 195.708257365 82.8492430552 197.691123858 98.9010283608 204.787971342 115 c 1
 130.15181388 115 l 1
 125 90.625 l 1
 171.25 91.125 l 1
 171.25 62.5 l 1
 119.25 62.5 l 1
 97.25 -38.375 l 1
 80 -38.375 l 1
 101.25 62.5 l 1
 50.25 62.5 l 1
 29.75 -38.375 l 1
 12.75 -38.375 l 1
 33.75 62.625 l 1
 0.25 62.5 l 1
 0 90.625 l 1
 40.25 90.875 l 1
 45.294128202 115 l 1
 0 115 l 1
 0 142 l 1
 50.9393701275 142 l 1
 56.75 169.791015625 l 1
 12.75 169.875 l 1
 12.75 196.875 l 1
 62.25 196.875 l 1
 84.25 298.875 l 1
 101.25 298.875 l 1
 78.75 196.875 l 1
 130 196.875 l 1
 152 298.875 l 1
 169.25 298.875 l 1
 147.25 196.875 l 1
 181.25 196.875 l 1
 181.25 169.791015625 l 1
 141.75 169.875 l 1
 135.858438486 142 l 1
 221.401051978 142 l 1
 254.109355435 183.442179807 318.030750155 222.040648776 396.580078125 243.087890625 c 0
 522.150390625 276.734375 637.7734375 252.845703125 654.725585938 189.576171875 c 0
 658.813025481 174.322205387 656.788543858 158.182772439 649.601819619 142 c 1
 859 142 l 1
 859 115 l 1
 632.901658206 115 l 1
 600.133859798 73.6526394738 536.31127833 35.1670228581 457.919921875 14.162109375 c 0
 332.349609375 -19.484375 216.727539062 4.404296875 199.774414062 67.673828125 c 0
428.75 200.25 m 1
 436 178.5 l 1
 457.625 116 l 1
 399.75 116 l 1
 418.625 168.875 l 1
 427.25 195.375 l 1
 428.75 200.25 l 1
481 49.625 m 1
 505.25 49.625 l 1
 442.625 218.25 l 1
 415.5 218.25 l 1
 351.75 49.625 l 1
 376.25 49.625 l 1
 393.375 97.375 l 1
 463.75 97.375 l 1
 481 49.625 l 1
EndSplineSet
EndChar

StartChar: X
Encoding: 88 88 23
Width: 859
VWidth: 1361
Flags: HW
LayerCount: 2
Fore
SplineSet
-19.861328125 290.143554688 m 1029
199.663085938 58.9423828125 m 0
 194.861522162 76.8613984091 198.494091731 96.0023116689 209.021326497 115 c 1
 0 115 l 1
 0 142 l 1
 228.679350752 142 l 1
 263.098094751 180.07438374 323.466084304 214.795428048 396.46875 234.356445312 c 0
 522.0390625 268.002929688 637.661132812 244.114257812 654.614257812 180.845703125 c 0
 657.965658105 168.337657113 657.207741501 155.234337828 652.864057546 142 c 1
 859 142 l 1
 859 115 l 1
 639.216387332 115 l 1
 608.896824113 70.4023028402 541.694181604 27.9087298734 457.80859375 5.431640625 c 0
 332.23828125 -28.21484375 216.615234375 -4.326171875 199.663085938 58.9423828125 c 0
475.388671875 83.5185546875 m 0
 475.388671875 73.2685546875 471.951171875 65.623046875 465.076171875 60.5810546875 c 0
 458.201171875 55.5400390625 447.471679688 53.0185546875 432.888671875 53.0185546875 c 2
 399.638671875 53.0185546875 l 1
 399.638671875 112.768554688 l 1
 431.138671875 112.768554688 l 2
 445.8046875 112.768554688 456.846679688 110.268554688 464.263671875 105.268554688 c 0
 471.6796875 100.268554688 475.388671875 93.0185546875 475.388671875 83.5185546875 c 0
465.263671875 158.643554688 m 0
 465.263671875 140.477539062 452.763671875 131.393554688 427.763671875 131.393554688 c 2
 399.638671875 131.393554688 l 1
 399.638671875 183.393554688 l 1
 427.513671875 183.393554688 l 2
 440.096679688 183.393554688 449.534179688 181.498046875 455.826171875 177.706054688 c 0
 462.1171875 173.915039062 465.263671875 167.560546875 465.263671875 158.643554688 c 0
499.513671875 81.3935546875 m 0
 499.513671875 92.6435546875 495.701171875 101.977539062 488.076171875 109.393554688 c 0
 480.451171875 116.810546875 469.6796875 121.268554688 455.763671875 122.768554688 c 1
 466.096679688 124.852539062 474.263671875 129.310546875 480.263671875 136.143554688 c 0
 486.263671875 142.977539062 489.263671875 151.477539062 489.263671875 161.643554688 c 0
 489.263671875 188.893554688 468.596679688 202.518554688 427.263671875 202.518554688 c 2
 375.763671875 202.518554688 l 1
 375.763671875 33.8935546875 l 1
 434.763671875 33.8935546875 l 2
 455.096679688 33.8935546875 470.971679688 38.060546875 482.388671875 46.3935546875 c 0
 493.8046875 54.7275390625 499.513671875 66.3935546875 499.513671875 81.3935546875 c 0
EndSplineSet
EndChar

StartChar: Y
Encoding: 89 89 24
Width: 858
VWidth: 1361
Flags: HW
LayerCount: 2
Fore
SplineSet
388.25 130.75 m 4
 388.25 153.666015625 391.6875 170.5 398.5625 181.25 c 132
 405.4375 192 416 197.375 430.25 197.375 c 4
 438.833007812 197.375 446.395507812 194.646484375 452.9375 189.1875 c 132
 459.478515625 183.728515625 464.291015625 176.291015625 467.375 166.875 c 5
 488.375 175 l 5
 477.791015625 202.916015625 458.375 216.875 430.125 216.875 c 4
 385.458007812 216.875 363.125 188.166015625 363.125 130.75 c 4
 363.125 102.5 369.020507812 80.833984375 380.8125 65.75 c 132
 392.603515625 50.666015625 409.458007812 43.125 431.375 43.125 c 4
 459.208007812 43.125 479.333007812 58.625 491.75 89.625 c 5
 471.875 97.75 l 5
 467.125 85.666015625 461.333007812 76.771484375 454.5 71.0625 c 132
 447.666015625 65.353515625 440.041015625 62.5 431.625 62.5 c 4
 416.958007812 62.5 406.0625 68.1875 398.9375 79.5625 c 132
 391.8125 90.9375 388.25 108 388.25 130.75 c 4
201.774414062 189.326171875 m 4
 218.7265625 252.595703125 334.349609375 276.484375 459.919921875 242.837890625 c 4
 585.490234375 209.19140625 673.677734375 130.69140625 656.725585938 67.423828125 c 4
 639.772460938 4.154296875 524.150390625 -19.734375 398.580078125 13.912109375 c 4
 273.009765625 47.55859375 184.821289062 126.05859375 201.774414062 189.326171875 c 4
EndSplineSet
EndChar

StartChar: n
Encoding: 110 110 25
Width: 859
VWidth: 1361
Flags: HW
LayerCount: 2
Fore
SplineSet
-17.4375 299.25 m 1029
202.086914062 189.951171875 m 0
 219.040039062 253.219726562 334.662109375 277.108398438 460.232421875 243.462890625 c 0
 539.018625541 222.352178086 603.088538067 183.584222807 635.706504416 142 c 1
 859 142 l 1
 859 115 l 1
 652.188916991 115 l 1
 659.151803999 99.0268080198 661.072670327 83.106411181 657.038085938 68.048828125 c 0
 640.0859375 4.779296875 524.462890625 -19.109375 398.892578125 14.537109375 c 0
 320.738261741 35.4785081235 257.06512562 73.7950534087 224.209371884 115 c 1
 0 115 l 1
 0 142 l 1
 207.378545037 142 l 1
 200.05595468 158.308394041 197.96813995 174.579382044 202.086914062 189.951171875 c 0
431.0625 200.625 m 1
 438.3125 178.875 l 1
 459.9375 116.375 l 1
 402.0625 116.375 l 1
 420.9375 169.25 l 1
 429.5625 195.75 l 1
 431.0625 200.625 l 1
483.3125 50 m 1
 507.5625 50 l 1
 444.9375 218.625 l 1
 417.8125 218.625 l 1
 354.0625 50 l 1
 378.5625 50 l 1
 395.6875 97.75 l 1
 466.0625 97.75 l 1
 483.3125 50 l 1
EndSplineSet
EndChar

StartChar: grave
Encoding: 96 96 26
Width: 859
VWidth: 1361
Flags: HW
LayerCount: 2
Fore
SplineSet
487.0625 63.875 m 1
 487.0625 135.375 l 1
 427.1875 135.375 l 1
 427.1875 115.375 l 1
 463.8125 115.375 l 1
 463.8125 73.375 l 1
 459.978515625 70.708984375 455.021484375 68.5 448.9375 66.75 c 128
 442.853515625 65 436.978515625 64.125 431.3125 64.125 c 0
 402.896484375 64.125 388.6875 86.875 388.6875 132.375 c 0
 388.6875 155.791015625 392.041015625 172.75 398.75 183.25 c 128
 405.458984375 193.75 415.853515625 199 429.9375 199 c 0
 447.271484375 199 459.271484375 189.375 465.9375 170.125 c 1
 487.3125 177.125 l 1
 477.728515625 204.708984375 458.521484375 218.5 429.6875 218.5 c 0
 407.603515625 218.5 391.0625 211.375 380.0625 197.125 c 128
 369.0625 182.875 363.5625 161.291015625 363.5625 132.375 c 0
 363.5625 104.875 369.3125 83.396484375 380.8125 67.9375 c 128
 392.3125 52.478515625 408.478515625 44.75 429.3125 44.75 c 0
 448.728515625 44.75 467.978515625 51.125 487.0625 63.875 c 1
202.086914062 191.951171875 m 4
 219.040039062 255.219726562 334.662109375 279.108398438 460.232421875 245.462890625 c 4
 585.802734375 211.81640625 673.990234375 133.31640625 657.038085938 70.048828125 c 4
 640.0859375 6.779296875 524.462890625 -17.109375 398.892578125 16.537109375 c 4
 273.322265625 50.18359375 185.134765625 128.68359375 202.086914062 191.951171875 c 4
-17.4375 300.25 m 1025
EndSplineSet
EndChar

StartChar: a
Encoding: 97 97 27
Width: 859
VWidth: 1361
Flags: HW
LayerCount: 2
Fore
SplineSet
489.75 66.5 m 1
 489.75 138 l 1
 429.875 138 l 1
 429.875 118 l 1
 466.5 118 l 1
 466.5 76 l 1
 462.666992188 73.333984375 457.708984375 71.125 451.625 69.375 c 128
 445.541992188 67.625 439.666992188 66.75 434 66.75 c 0
 405.583984375 66.75 391.375 89.5 391.375 135 c 0
 391.375 158.416015625 394.729492188 175.375 401.4375 185.875 c 128
 408.146484375 196.375 418.541992188 201.625 432.625 201.625 c 0
 449.958984375 201.625 461.958984375 192 468.625 172.75 c 1
 490 179.75 l 1
 480.416992188 207.333984375 461.208984375 221.125 432.375 221.125 c 0
 410.291992188 221.125 393.75 214 382.75 199.75 c 128
 371.75 185.5 366.25 163.916015625 366.25 135 c 0
 366.25 107.5 372 86.021484375 383.5 70.5625 c 128
 395 55.103515625 411.166992188 47.375 432 47.375 c 0
 451.416992188 47.375 470.666992188 53.75 489.75 66.5 c 1
204.774414062 192.326171875 m 4
 221.727539062 255.595703125 337.349609375 279.484375 462.919921875 245.837890625 c 4
 588.490234375 212.19140625 676.678710938 133.69140625 659.725585938 70.423828125 c 4
 642.7734375 7.154296875 527.150390625 -16.734375 401.580078125 16.912109375 c 4
 276.009765625 50.55859375 187.822265625 129.05859375 204.774414062 192.326171875 c 4
144.75 173.875 m 1
 128 94.625 l 1
 174.25 95.125 l 1
 174.25 66.5 l 1
 122.25 66.5 l 1
 100.25 -34.375 l 1
 83 -34.375 l 1
 104.25 66.5 l 1
 53.25 66.5 l 1
 32.75 -34.375 l 1
 15.75 -34.375 l 1
 36.75 66.625 l 1
 3.25 66.5 l 1
 3 94.625 l 1
 43.25 94.875 l 1
 59.75 173.791015625 l 1
 15.75 173.875 l 1
 15.75 200.875 l 1
 65.25 200.875 l 1
 87.25 302.875 l 1
 104.25 302.875 l 1
 81.75 200.875 l 1
 133 200.875 l 1
 155 302.875 l 1
 172.25 302.875 l 1
 150.25 200.875 l 1
 184.25 200.875 l 1
 184.25 173.791015625 l 1
 144.75 173.875 l 1
76.75 173.791015625 m 1
 59.75 94.875 l 1
 110.5 94.625 l 1
 127.25 173.875 l 1
 76.75 173.791015625 l 1
2.25 302.875 m 1025
EndSplineSet
EndChar

StartChar: b
Encoding: 98 98 28
Width: 859
VWidth: 1361
Flags: HW
LayerCount: 2
Fore
SplineSet
483.3125 50 m 5
 507.5625 50 l 5
 444.9375 218.625 l 5
 417.8125 218.625 l 5
 354.0625 50 l 5
 378.5625 50 l 5
 395.6875 97.75 l 5
 466.0625 97.75 l 5
 483.3125 50 l 5
431.0625 200.625 m 5
 438.3125 178.875 l 5
 459.9375 116.375 l 5
 402.0625 116.375 l 5
 420.9375 169.25 l 5
 429.5625 195.75 l 5
 431.0625 200.625 l 5
202.086914062 189.951171875 m 4
 219.040039062 253.219726562 334.662109375 277.108398438 460.232421875 243.462890625 c 4
 585.802734375 209.81640625 673.990234375 131.31640625 657.038085938 68.048828125 c 4
 640.0859375 4.779296875 524.462890625 -19.109375 398.892578125 14.537109375 c 4
 273.322265625 48.18359375 185.134765625 126.68359375 202.086914062 189.951171875 c 4
-17.4375 299.25 m 1025
EndSplineSet
EndChar

StartChar: c
Encoding: 99 99 29
Width: 859
VWidth: 1361
Flags: HW
LayerCount: 2
Fore
SplineSet
481 49.625 m 1
 505.25 49.625 l 1
 442.625 218.25 l 1
 415.5 218.25 l 1
 351.75 49.625 l 1
 376.25 49.625 l 1
 393.375 97.375 l 1
 463.75 97.375 l 1
 481 49.625 l 1
428.75 200.25 m 1
 436 178.5 l 1
 457.625 116 l 1
 399.75 116 l 1
 418.625 168.875 l 1
 427.25 195.375 l 1
 428.75 200.25 l 1
199.774414062 191.326171875 m 4
 216.727539062 254.595703125 332.349609375 278.484375 457.919921875 244.837890625 c 4
 583.490234375 211.19140625 671.678710938 132.69140625 654.725585938 69.423828125 c 4
 637.7734375 6.154296875 522.150390625 -17.734375 396.580078125 15.912109375 c 4
 271.009765625 49.55859375 182.822265625 128.05859375 199.774414062 191.326171875 c 4
141.75 169.875 m 1
 125 90.625 l 1
 171.25 91.125 l 1
 171.25 62.5 l 1
 119.25 62.5 l 1
 97.25 -38.375 l 1
 80 -38.375 l 1
 101.25 62.5 l 1
 50.25 62.5 l 1
 29.75 -38.375 l 1
 12.75 -38.375 l 1
 33.75 62.625 l 1
 0.25 62.5 l 1
 0 90.625 l 1
 40.25 90.875 l 1
 56.75 169.791015625 l 1
 12.75 169.875 l 1
 12.75 196.875 l 1
 62.25 196.875 l 1
 84.25 298.875 l 1
 101.25 298.875 l 1
 78.75 196.875 l 1
 130 196.875 l 1
 152 298.875 l 1
 169.25 298.875 l 1
 147.25 196.875 l 1
 181.25 196.875 l 1
 181.25 169.791015625 l 1
 141.75 169.875 l 1
73.75 169.791015625 m 1
 56.75 90.875 l 1
 107.5 90.625 l 1
 124.25 169.875 l 1
 73.75 169.791015625 l 1
-0.75 298.875 m 1025
EndSplineSet
EndChar

StartChar: d
Encoding: 100 100 30
Width: 859
VWidth: 1361
Flags: HW
LayerCount: 2
Fore
SplineSet
499.513671875 81.3935546875 m 0
 499.513671875 92.6435546875 495.701171875 101.977539062 488.076171875 109.393554688 c 128
 480.451171875 116.810546875 469.6796875 121.268554688 455.763671875 122.768554688 c 1
 466.096679688 124.852539062 474.263671875 129.310546875 480.263671875 136.143554688 c 128
 486.263671875 142.977539062 489.263671875 151.477539062 489.263671875 161.643554688 c 0
 489.263671875 188.893554688 468.596679688 202.518554688 427.263671875 202.518554688 c 2
 375.763671875 202.518554688 l 1
 375.763671875 33.8935546875 l 1
 434.763671875 33.8935546875 l 2
 455.096679688 33.8935546875 470.971679688 38.060546875 482.388671875 46.3935546875 c 128
 493.8046875 54.7275390625 499.513671875 66.3935546875 499.513671875 81.3935546875 c 0
465.263671875 158.643554688 m 0
 465.263671875 140.477539062 452.763671875 131.393554688 427.763671875 131.393554688 c 2
 399.638671875 131.393554688 l 1
 399.638671875 183.393554688 l 1
 427.513671875 183.393554688 l 2
 440.096679688 183.393554688 449.534179688 181.498046875 455.826171875 177.706054688 c 128
 462.1171875 173.915039062 465.263671875 167.560546875 465.263671875 158.643554688 c 0
475.388671875 83.5185546875 m 0
 475.388671875 73.2685546875 471.951171875 65.623046875 465.076171875 60.5810546875 c 128
 458.201171875 55.5400390625 447.471679688 53.0185546875 432.888671875 53.0185546875 c 2
 399.638671875 53.0185546875 l 1
 399.638671875 112.768554688 l 1
 431.138671875 112.768554688 l 2
 445.8046875 112.768554688 456.846679688 110.268554688 464.263671875 105.268554688 c 128
 471.6796875 100.268554688 475.388671875 93.0185546875 475.388671875 83.5185546875 c 0
199.663085938 190.057617188 m 4
 216.615234375 253.326171875 332.23828125 277.21484375 457.80859375 243.568359375 c 4
 583.37890625 209.921875 671.56640625 131.422851562 654.614257812 68.154296875 c 4
 637.661132812 4.8857421875 522.0390625 -19.0029296875 396.46875 14.6435546875 c 4
 270.8984375 48.2900390625 182.709960938 126.790039062 199.663085938 190.057617188 c 4
-19.861328125 290.143554688 m 1025
EndSplineSet
EndChar

StartChar: e
Encoding: 101 101 31
Width: 858
VWidth: 1361
Flags: HW
LayerCount: 2
Fore
SplineSet
201.774414062 189.326171875 m 0
 218.7265625 252.595703125 334.349609375 276.484375 459.919921875 242.837890625 c 0
 538.31127833 221.832977142 602.133479203 183.347360526 634.901229218 142 c 1
 858 142 l 1
 858 115 l 1
 651.60141281 115 l 1
 658.78818649 98.8172275611 660.812790029 82.6777946134 656.725585938 67.423828125 c 0
 639.772460938 4.154296875 524.150390625 -19.734375 398.580078125 13.912109375 c 0
 320.030750155 34.9593512237 256.108973305 73.5578201929 223.400622702 115 c 1
 0 115 l 1
 0 142 l 1
 206.787565305 142 l 1
 199.69076775 158.098971639 197.708023126 174.150756945 201.774414062 189.326171875 c 0
388.25 130.75 m 0
 388.25 153.666015625 391.6875 170.5 398.5625 181.25 c 0
 405.4375 192 416 197.375 430.25 197.375 c 0
 438.833007812 197.375 446.395507812 194.646484375 452.9375 189.1875 c 0
 459.478515625 183.728515625 464.291015625 176.291015625 467.375 166.875 c 1
 488.375 175 l 1
 477.791015625 202.916015625 458.375 216.875 430.125 216.875 c 0
 385.458007812 216.875 363.125 188.166015625 363.125 130.75 c 0
 363.125 102.5 369.020507812 80.833984375 380.8125 65.75 c 0
 392.603515625 50.666015625 409.458007812 43.125 431.375 43.125 c 0
 459.208007812 43.125 479.333007812 58.625 491.75 89.625 c 1
 471.875 97.75 l 1
 467.125 85.666015625 461.333007812 76.771484375 454.5 71.0625 c 0
 447.666015625 65.353515625 440.041015625 62.5 431.625 62.5 c 0
 416.958007812 62.5 406.0625 68.1875 398.9375 79.5625 c 0
 391.8125 90.9375 388.25 108 388.25 130.75 c 0
EndSplineSet
EndChar

StartChar: f
Encoding: 102 102 32
Width: 858
VWidth: 1361
Flags: HW
LayerCount: 2
Fore
SplineSet
-0.75 301.875 m 1029
201.774414062 192.326171875 m 0
 218.7265625 255.595703125 334.349609375 279.484375 459.919921875 245.837890625 c 0
 540.204166587 224.325778952 605.207168561 184.478571174 637.220370937 142 c 1
 858 142 l 1
 858 115 l 1
 652.874635447 115 l 1
 659.015112813 99.8255040822 660.560166337 84.7349708046 656.725585938 70.423828125 c 0
 639.772460938 7.154296875 524.150390625 -16.734375 398.580078125 16.912109375 c 0
 321.929426267 37.4506021821 259.207724496 74.7020884704 225.826956037 115 c 1
 129.517744479 115 l 1
 125 93.625 l 1
 171.25 94.125 l 1
 171.25 65.5 l 1
 119.25 65.5 l 1
 97.25 -35.375 l 1
 80 -35.375 l 1
 101.25 65.5 l 1
 50.25 65.5 l 1
 29.75 -35.375 l 1
 12.75 -35.375 l 1
 33.75 65.625 l 1
 0.25 65.5 l 1
 0 93.625 l 1
 40.25 93.875 l 1
 44.6668790991 115 l 1
 0 115 l 1
 0 142 l 1
 50.3121210246 142 l 1
 56.75 172.791015625 l 1
 12.75 172.875 l 1
 12.75 199.875 l 1
 62.25 199.875 l 1
 84.25 301.875 l 1
 101.25 301.875 l 1
 78.75 199.875 l 1
 130 199.875 l 1
 152 301.875 l 1
 169.25 301.875 l 1
 147.25 199.875 l 1
 181.25 199.875 l 1
 181.25 172.791015625 l 1
 141.75 172.875 l 1
 135.224369085 142 l 1
 208.168839237 142 l 1
 199.960393029 159.101684016 197.455465377 176.208233537 201.774414062 192.326171875 c 0
388.25 130.75 m 0
 388.25 153.666015625 391.6875 170.5 398.5625 181.25 c 0
 405.4375 192 416 197.375 430.25 197.375 c 0
 438.833007812 197.375 446.395507812 194.646484375 452.9375 189.1875 c 0
 459.478515625 183.728515625 464.291015625 176.291015625 467.375 166.875 c 1
 488.375 175 l 1
 477.791015625 202.916015625 458.375 216.875 430.125 216.875 c 0
 385.458007812 216.875 363.125 188.166015625 363.125 130.75 c 0
 363.125 102.5 369.020507812 80.833984375 380.8125 65.75 c 0
 392.603515625 50.666015625 409.458007812 43.125 431.375 43.125 c 0
 459.208007812 43.125 479.333007812 58.625 491.75 89.625 c 1
 471.875 97.75 l 1
 467.125 85.666015625 461.333007812 76.771484375 454.5 71.0625 c 0
 447.666015625 65.353515625 440.041015625 62.5 431.625 62.5 c 0
 416.958007812 62.5 406.0625 68.1875 398.9375 79.5625 c 0
 391.8125 90.9375 388.25 108 388.25 130.75 c 0
117.724369085 142 m 1
 124.25 172.875 l 1
 73.75 172.791015625 l 1
 67.1170337829 142 l 1
 117.724369085 142 l 1
112.017744479 115 m 1
 61.3007239203 115 l 1
 56.75 93.875 l 1
 107.5 93.625 l 1
 112.017744479 115 l 1
EndSplineSet
EndChar

StartChar: g
Encoding: 103 103 33
Width: 859
VWidth: 1361
Flags: HW
LayerCount: 2
Fore
SplineSet
604 142 m 5
 859 142 l 5
 859 115 l 5
 604 115 l 5
 604 142 l 5
0 142 m 1
 239 142 l 1
 239 115 l 1
 0 115 l 1
 0 142 l 1
495.25 129.456054688 m 0
 495.25 157.123046875 488.520507812 177.810546875 475.0625 191.518554688 c 128
 461.603515625 205.227539062 441.166015625 212.081054688 413.75 212.081054688 c 2
 374.875 212.081054688 l 1
 374.875 43.4560546875 l 1
 421.125 43.4560546875 l 2
 444.958007812 43.4560546875 463.270507812 50.8935546875 476.0625 65.7685546875 c 128
 488.853515625 80.6435546875 495.25 101.873046875 495.25 129.456054688 c 0
471.25 129.456054688 m 0
 471.25 107.290039062 466.958007812 90.6650390625 458.375 79.5810546875 c 128
 449.791015625 68.498046875 436.666015625 62.9560546875 419 62.9560546875 c 2
 398.75 62.9560546875 l 1
 398.75 192.581054688 l 1
 413.875 192.581054688 l 2
 433.791015625 192.581054688 448.333007812 187.560546875 457.5 177.518554688 c 128
 466.666015625 167.477539062 471.25 151.456054688 471.25 129.456054688 c 0
202.086914062 191.057617188 m 0
 219.0390625 254.326171875 334.662109375 278.21484375 460.232421875 244.568359375 c 0
 585.802734375 210.921875 673.990234375 132.422851562 657.038085938 69.154296875 c 0
 640.084960938 5.8857421875 524.462890625 -18.0029296875 398.892578125 15.6435546875 c 0
 273.322265625 49.2900390625 185.133789062 127.790039062 202.086914062 191.057617188 c 0
-17.4375 302.143554688 m 1025
EndSplineSet
EndChar

StartChar: h
Encoding: 104 104 34
Width: 859
VWidth: 1361
Flags: HW
LayerCount: 2
Fore
SplineSet
-0.75 299.875 m 1029
218.774414062 192.326171875 m 0
 235.7265625 255.595703125 351.349609375 279.484375 476.919921875 245.837890625 c 0
 557.204166587 224.325778952 622.207168561 184.478571174 654.220370937 142 c 1
 859 142 l 1
 859 115 l 1
 669.874635447 115 l 1
 676.015112813 99.8255040822 677.560166337 84.7349708046 673.725585938 70.423828125 c 0
 656.772460938 7.154296875 541.150390625 -16.734375 415.580078125 16.912109375 c 0
 338.929426267 37.4506021821 276.207724496 74.7020884704 242.826956037 115 c 1
 129.940457413 115 l 1
 125 91.625 l 1
 171.25 92.125 l 1
 171.25 63.5 l 1
 119.25 63.5 l 1
 97.25 -37.375 l 1
 80 -37.375 l 1
 101.25 63.5 l 1
 50.25 63.5 l 1
 29.75 -37.375 l 1
 12.75 -37.375 l 1
 33.75 63.625 l 1
 0.25 63.5 l 1
 0 91.625 l 1
 40.25 91.875 l 1
 45.0850451677 115 l 1
 0 115 l 1
 0 142 l 1
 50.7302870932 142 l 1
 56.75 170.791015625 l 1
 12.75 170.875 l 1
 12.75 197.875 l 1
 62.25 197.875 l 1
 84.25 299.875 l 1
 101.25 299.875 l 1
 78.75 197.875 l 1
 130 197.875 l 1
 152 299.875 l 1
 169.25 299.875 l 1
 147.25 197.875 l 1
 181.25 197.875 l 1
 181.25 170.791015625 l 1
 141.75 170.875 l 1
 135.647082019 142 l 1
 225.168839237 142 l 1
 216.960393029 159.101684016 214.455465377 176.208233537 218.774414062 192.326171875 c 0
487.9375 127.1875 m 0
 487.9375 105.021484375 483.645507812 88.396484375 475.0625 77.3125 c 0
 466.478515625 66.228515625 453.353515625 60.6875 435.6875 60.6875 c 2
 415.4375 60.6875 l 1
 415.4375 190.3125 l 1
 430.5625 190.3125 l 2
 450.478515625 190.3125 465.020507812 185.291015625 474.1875 175.25 c 0
 483.353515625 165.208984375 487.9375 149.1875 487.9375 127.1875 c 0
511.9375 127.1875 m 0
 511.9375 154.853515625 505.208007812 175.541015625 491.75 189.25 c 0
 478.291015625 202.958984375 457.853515625 209.8125 430.4375 209.8125 c 2
 391.5625 209.8125 l 1
 391.5625 41.1875 l 1
 437.8125 41.1875 l 2
 461.645507812 41.1875 479.958007812 48.625 492.75 63.5 c 0
 505.541015625 78.375 511.9375 99.603515625 511.9375 127.1875 c 0
61.7315616879 115 m 1
 56.75 91.875 l 1
 107.5 91.625 l 1
 112.440457413 115 l 1
 61.7315616879 115 l 1
67.5478715506 142 m 1
 118.147082019 142 l 1
 124.25 170.875 l 1
 73.75 170.791015625 l 1
 67.5478715506 142 l 1
EndSplineSet
EndChar

StartChar: i
Encoding: 105 105 35
Width: 857
VWidth: 1361
Flags: HW
LayerCount: 2
Fore
SplineSet
-17.4375 300.25 m 1029
202.086914062 189.951171875 m 0
 219.040039062 253.219726562 334.662109375 277.108398438 460.232421875 243.462890625 c 0
 539.018625541 222.352178086 603.088538067 183.584222807 635.706504416 142 c 1
 857 142 l 1
 857 115 l 1
 652.188916991 115 l 1
 659.151803999 99.0268080198 661.072670327 83.106411181 657.038085938 68.048828125 c 0
 640.0859375 4.779296875 524.462890625 -19.109375 398.892578125 14.537109375 c 0
 320.738261741 35.4785081235 257.06512562 73.7950534087 224.209371884 115 c 1
 0 115 l 1
 0 142 l 1
 207.378545037 142 l 1
 200.05595468 158.308394041 197.96813995 174.579382044 202.086914062 189.951171875 c 0
370.0625 45.5 m 1
 490.0625 45.5 l 1
 490.0625 65 l 1
 393.9375 65 l 1
 393.9375 122.625 l 1
 477.4375 122.625 l 1
 477.4375 141.875 l 1
 393.9375 141.875 l 1
 393.9375 194.625 l 1
 484.9375 194.625 l 1
 484.9375 214.125 l 1
 370.0625 214.125 l 1
 370.0625 45.5 l 1
EndSplineSet
EndChar

StartChar: j
Encoding: 106 106 36
Width: 859
VWidth: 1361
Flags: HW
HStem: 126.25 61.75<395.562 480.062>
LayerCount: 2
Fore
SplineSet
-17.4375 301.25 m 1029
202.086914062 191.951171875 m 0
 219.040039062 255.219726562 334.662109375 279.108398438 460.232421875 245.462890625 c 0
 540.280374004 224.014093398 605.136902528 184.337968946 637.249350309 142 c 1
 859 142 l 1
 859 115 l 1
 653.034460584 115 l 1
 659.301794161 99.6991626057 660.904252309 84.4778536766 657.038085938 70.048828125 c 0
 640.0859375 6.779296875 524.462890625 -17.109375 398.892578125 16.537109375 c 0
 322.004219255 37.139295623 259.131702767 74.5582958892 225.83017016 115 c 1
 0 115 l 1
 0 142 l 1
 208.302675475 142 l 1
 200.23700851 158.976702065 197.799780466 175.951042999 202.086914062 191.951171875 c 0
395.5625 188 m 1
 483.0625 188 l 1
 483.0625 207.5 l 1
 371.6875 207.5 l 1
 371.6875 38.875 l 1
 395.5625 38.875 l 1
 395.5625 106.5 l 1
 480.0625 106.5 l 1
 480.0625 126.25 l 1
 395.5625 126.25 l 1
 395.5625 188 l 1
EndSplineSet
EndChar

StartChar: k
Encoding: 107 107 37
Width: 858
VWidth: 1361
Flags: HW
LayerCount: 2
Fore
SplineSet
-0.75 299.875 m 1029
198.774414062 191.326171875 m 0
 215.727539062 254.595703125 331.349609375 278.484375 456.919921875 244.837890625 c 0
 536.573857258 223.494669931 601.185946162 184.103119637 633.460706087 142 c 1
 858 142 l 1
 858 115 l 1
 649.463781682 115 l 1
 655.944993019 99.4887823073 657.644615483 84.049303247 653.725585938 69.423828125 c 0
 636.7734375 6.154296875 521.150390625 -17.734375 395.580078125 15.912109375 c 0
 318.295784072 36.6203862002 255.172052704 74.3191187236 222.00556782 115 c 1
 129.940457413 115 l 1
 125 91.625 l 1
 171.25 92.125 l 1
 171.25 63.5 l 1
 119.25 63.5 l 1
 97.25 -37.375 l 1
 80 -37.375 l 1
 101.25 63.5 l 1
 50.25 63.5 l 1
 29.75 -37.375 l 1
 12.75 -37.375 l 1
 33.75 63.625 l 1
 0.25 63.5 l 1
 0 91.625 l 1
 40.25 91.875 l 1
 45.0850451677 115 l 1
 0 115 l 1
 0 142 l 1
 50.7302870932 142 l 1
 56.75 170.791015625 l 1
 12.75 170.875 l 1
 12.75 197.875 l 1
 62.25 197.875 l 1
 84.25 299.875 l 1
 101.25 299.875 l 1
 78.75 197.875 l 1
 130 197.875 l 1
 152 299.875 l 1
 169.25 299.875 l 1
 147.25 197.875 l 1
 181.25 197.875 l 1
 181.25 170.791015625 l 1
 141.75 170.875 l 1
 135.647082019 142 l 1
 204.695780192 142 l 1
 196.865702941 158.768165976 194.53989121 175.522392999 198.774414062 191.326171875 c 0
392.25 186.625 m 1
 479.75 186.625 l 1
 479.75 206.125 l 1
 368.375 206.125 l 1
 368.375 37.5 l 1
 392.25 37.5 l 1
 392.25 105.125 l 1
 476.75 105.125 l 1
 476.75 124.875 l 1
 392.25 124.875 l 1
 392.25 186.625 l 1
61.7315616879 115 m 1
 56.75 91.875 l 1
 107.5 91.625 l 1
 112.440457413 115 l 1
 61.7315616879 115 l 1
67.5478715506 142 m 1
 118.147082019 142 l 1
 124.25 170.875 l 1
 73.75 170.791015625 l 1
 67.5478715506 142 l 1
EndSplineSet
EndChar

StartChar: l
Encoding: 108 108 38
Width: 859
VWidth: 1361
Flags: HW
LayerCount: 2
Fore
SplineSet
-17.4375 300.25 m 1029
202.086914062 191.951171875 m 0
 219.040039062 255.219726562 334.662109375 279.108398438 460.232421875 245.462890625 c 0
 540.280374004 224.014093398 605.136902528 184.337968946 637.249350309 142 c 1
 859 142 l 1
 859 115 l 1
 653.034460584 115 l 1
 659.301794161 99.6991626057 660.904252309 84.4778536766 657.038085938 70.048828125 c 0
 640.0859375 6.779296875 524.462890625 -17.109375 398.892578125 16.537109375 c 0
 322.004219255 37.139295623 259.131702767 74.5582958892 225.83017016 115 c 1
 0 115 l 1
 0 142 l 1
 208.302675475 142 l 1
 200.23700851 158.976702065 197.799780466 175.951042999 202.086914062 191.951171875 c 0
487.0625 63.875 m 1
 487.0625 135.375 l 1
 427.1875 135.375 l 1
 427.1875 115.375 l 1
 463.8125 115.375 l 1
 463.8125 73.375 l 2
 459.978515625 70.708984375 455.021484375 68.5 448.9375 66.75 c 0
 442.853515625 65 436.978515625 64.125 431.3125 64.125 c 0
 402.896484375 64.125 388.6875 86.875 388.6875 132.375 c 0
 388.6875 155.791015625 392.041015625 172.75 398.75 183.25 c 0
 405.458984375 193.75 415.853515625 199 429.9375 199 c 0
 447.271484375 199 459.271484375 189.375 465.9375 170.125 c 1
 487.3125 177.125 l 1
 477.728515625 204.708984375 458.521484375 218.5 429.6875 218.5 c 0
 407.603515625 218.5 391.0625 211.375 380.0625 197.125 c 0
 369.0625 182.875 363.5625 161.291015625 363.5625 132.375 c 0
 363.5625 104.875 369.3125 83.396484375 380.8125 67.9375 c 0
 392.3125 52.478515625 408.478515625 44.75 429.3125 44.75 c 0
 448.728515625 44.75 467.978515625 51.125 487.0625 63.875 c 1
EndSplineSet
EndChar

StartChar: m
Encoding: 109 109 39
Width: 859
VWidth: 1361
Flags: HW
LayerCount: 2
Fore
SplineSet
2.25 302.875 m 1029
204.774414062 192.326171875 m 0
 221.727539062 255.595703125 337.349609375 279.484375 462.919921875 245.837890625 c 0
 543.204166587 224.325778952 608.207567758 184.478571174 640.220802839 142 c 1
 859 142 l 1
 859 115 l 1
 655.875032247 115 l 1
 662.015454676 99.8255040822 663.560387236 84.7349708046 659.725585938 70.423828125 c 0
 642.7734375 7.154296875 527.150390625 -16.734375 401.580078125 16.912109375 c 0
 324.929426267 37.4506021821 262.208088376 74.7020884704 228.827381317 115 c 1
 132.306388013 115 l 1
 128 94.625 l 1
 174.25 95.125 l 1
 174.25 66.5 l 1
 122.25 66.5 l 1
 100.25 -34.375 l 1
 83 -34.375 l 1
 104.25 66.5 l 1
 53.25 66.5 l 1
 32.75 -34.375 l 1
 15.75 -34.375 l 1
 36.75 66.625 l 1
 3.25 66.5 l 1
 3 94.625 l 1
 43.25 94.875 l 1
 47.4577960648 115 l 1
 0 115 l 1
 0 142 l 1
 53.1030379903 142 l 1
 59.75 173.791015625 l 1
 15.75 173.875 l 1
 15.75 200.875 l 1
 65.25 200.875 l 1
 87.25 302.875 l 1
 104.25 302.875 l 1
 81.75 200.875 l 1
 133 200.875 l 1
 155 302.875 l 1
 172.25 302.875 l 1
 150.25 200.875 l 1
 184.25 200.875 l 1
 184.25 173.791015625 l 1
 144.75 173.875 l 1
 138.013012618 142 l 1
 211.169253756 142 l 1
 202.960763842 159.101684016 200.455714164 176.208233537 204.774414062 192.326171875 c 0
489.75 66.5 m 1
 489.75 138 l 1
 429.875 138 l 1
 429.875 118 l 1
 466.5 118 l 1
 466.5 76 l 2
 462.666992188 73.333984375 457.708984375 71.125 451.625 69.375 c 0
 445.541992188 67.625 439.666992188 66.75 434 66.75 c 0
 405.583984375 66.75 391.375 89.5 391.375 135 c 0
 391.375 158.416015625 394.729492188 175.375 401.4375 185.875 c 0
 408.146484375 196.375 418.541992188 201.625 432.625 201.625 c 0
 449.958984375 201.625 461.958984375 192 468.625 172.75 c 1
 490 179.75 l 1
 480.416992188 207.333984375 461.208984375 221.125 432.375 221.125 c 0
 410.291992188 221.125 393.75 214 382.75 199.75 c 0
 371.75 185.5 366.25 163.916015625 366.25 135 c 0
 366.25 107.5 372 86.021484375 383.5 70.5625 c 0
 395 55.103515625 411.166992188 47.375 432 47.375 c 0
 451.416992188 47.375 470.666992188 53.75 489.75 66.5 c 1
64.0853050365 115 m 1
 59.75 94.875 l 1
 110.5 94.625 l 1
 114.806388013 115 l 1
 64.0853050365 115 l 1
69.9016148991 142 m 1
 120.513012618 142 l 1
 127.25 173.875 l 1
 76.75 173.791015625 l 1
 69.9016148991 142 l 1
EndSplineSet
EndChar

StartChar: p
Encoding: 112 112 40
Width: 859
VWidth: 1361
Flags: HW
LayerCount: 2
Fore
SplineSet
-19.861328125 290.143554688 m 1029
199.663085938 190.057617188 m 0
 216.615234375 253.326171875 332.23828125 277.21484375 457.80859375 243.568359375 c 0
 536.661672671 222.439727654 600.773466904 183.624249944 633.365668581 142 c 1
 859 142 l 1
 859 115 l 1
 649.811166664 115 l 1
 656.73643477 99.0622852398 658.639928145 83.1788434422 654.614257812 68.154296875 c 0
 637.661132812 4.8857421875 522.0390625 -19.0029296875 396.46875 14.6435546875 c 0
 318.38173673 35.5669196101 254.750595685 73.8355185069 221.870065759 115 c 1
 0 115 l 1
 0 142 l 1
 205.002177485 142 l 1
 197.640880929 158.34403467 195.535112967 174.652383496 199.663085938 190.057617188 c 0
475.388671875 83.5185546875 m 0
 475.388671875 73.2685546875 471.951171875 65.623046875 465.076171875 60.5810546875 c 0
 458.201171875 55.5400390625 447.471679688 53.0185546875 432.888671875 53.0185546875 c 2
 399.638671875 53.0185546875 l 1
 399.638671875 112.768554688 l 1
 431.138671875 112.768554688 l 2
 445.8046875 112.768554688 456.846679688 110.268554688 464.263671875 105.268554688 c 0
 471.6796875 100.268554688 475.388671875 93.0185546875 475.388671875 83.5185546875 c 0
465.263671875 158.643554688 m 0
 465.263671875 140.477539062 452.763671875 131.393554688 427.763671875 131.393554688 c 2
 399.638671875 131.393554688 l 1
 399.638671875 183.393554688 l 1
 427.513671875 183.393554688 l 2
 440.096679688 183.393554688 449.534179688 181.498046875 455.826171875 177.706054688 c 0
 462.1171875 173.915039062 465.263671875 167.560546875 465.263671875 158.643554688 c 0
499.513671875 81.3935546875 m 0
 499.513671875 92.6435546875 495.701171875 101.977539062 488.076171875 109.393554688 c 0
 480.451171875 116.810546875 469.6796875 121.268554688 455.763671875 122.768554688 c 1
 466.096679688 124.852539062 474.263671875 129.310546875 480.263671875 136.143554688 c 0
 486.263671875 142.977539062 489.263671875 151.477539062 489.263671875 161.643554688 c 0
 489.263671875 188.893554688 468.596679688 202.518554688 427.263671875 202.518554688 c 2
 375.763671875 202.518554688 l 1
 375.763671875 33.8935546875 l 1
 434.763671875 33.8935546875 l 2
 455.096679688 33.8935546875 470.971679688 38.060546875 482.388671875 46.3935546875 c 0
 493.8046875 54.7275390625 499.513671875 66.3935546875 499.513671875 81.3935546875 c 0
EndSplineSet
EndChar

StartChar: at
Encoding: 64 64 41
Width: 859
VWidth: 1361
Flags: HW
LayerCount: 2
Fore
SplineSet
0 142 m 5
 859 142 l 5
 859 115 l 5
 0 115 l 5
 0 142 l 5
EndSplineSet
EndChar

StartChar: Z
Encoding: 90 90 42
Width: 858
VWidth: 1361
Flags: HW
LayerCount: 2
Fore
SplineSet
201.774414062 192.326171875 m 0
 218.7265625 255.595703125 334.349609375 279.484375 459.919921875 245.837890625 c 0
 585.490234375 212.19140625 673.677734375 133.69140625 656.725585938 70.423828125 c 0
 639.772460938 7.154296875 524.150390625 -16.734375 398.580078125 16.912109375 c 0
 273.009765625 50.55859375 184.821289062 129.05859375 201.774414062 192.326171875 c 0
141.75 172.875 m 1
 125 93.625 l 1
 171.25 94.125 l 1
 171.25 65.5 l 1
 119.25 65.5 l 1
 97.25 -35.375 l 1
 80 -35.375 l 1
 101.25 65.5 l 1
 50.25 65.5 l 1
 29.75 -35.375 l 1
 12.75 -35.375 l 1
 33.75 65.625 l 1
 0.25 65.5 l 1
 0 93.625 l 1
 40.25 93.875 l 1
 56.75 172.791015625 l 1
 12.75 172.875 l 1
 12.75 199.875 l 1
 62.25 199.875 l 1
 84.25 301.875 l 1
 101.25 301.875 l 1
 78.75 199.875 l 1
 130 199.875 l 1
 152 301.875 l 1
 169.25 301.875 l 1
 147.25 199.875 l 1
 181.25 199.875 l 1
 181.25 172.791015625 l 1
 141.75 172.875 l 1
73.75 172.791015625 m 1
 56.75 93.875 l 1
 107.5 93.625 l 1
 124.25 172.875 l 1
 73.75 172.791015625 l 1
-0.75 301.875 m 1025
388.25 130.75 m 4
 388.25 153.666015625 391.6875 170.5 398.5625 181.25 c 132
 405.4375 192 416 197.375 430.25 197.375 c 4
 438.833007812 197.375 446.395507812 194.646484375 452.9375 189.1875 c 132
 459.478515625 183.728515625 464.291015625 176.291015625 467.375 166.875 c 5
 488.375 175 l 5
 477.791015625 202.916015625 458.375 216.875 430.125 216.875 c 4
 385.458007812 216.875 363.125 188.166015625 363.125 130.75 c 4
 363.125 102.5 369.020507812 80.833984375 380.8125 65.75 c 132
 392.603515625 50.666015625 409.458007812 43.125 431.375 43.125 c 4
 459.208007812 43.125 479.333007812 58.625 491.75 89.625 c 5
 471.875 97.75 l 5
 467.125 85.666015625 461.333007812 76.771484375 454.5 71.0625 c 132
 447.666015625 65.353515625 440.041015625 62.5 431.625 62.5 c 4
 416.958007812 62.5 406.0625 68.1875 398.9375 79.5625 c 132
 391.8125 90.9375 388.25 108 388.25 130.75 c 4
EndSplineSet
EndChar

StartChar: bracketleft
Encoding: 91 91 43
Width: 859
VWidth: 1361
Flags: HW
LayerCount: 2
Fore
SplineSet
495.25 129.456054688 m 0
 495.25 157.123046875 488.520507812 177.810546875 475.0625 191.518554688 c 128
 461.603515625 205.227539062 441.166015625 212.081054688 413.75 212.081054688 c 2
 374.875 212.081054688 l 1
 374.875 43.4560546875 l 1
 421.125 43.4560546875 l 2
 444.958007812 43.4560546875 463.270507812 50.8935546875 476.0625 65.7685546875 c 128
 488.853515625 80.6435546875 495.25 101.873046875 495.25 129.456054688 c 0
471.25 129.456054688 m 0
 471.25 107.290039062 466.958007812 90.6650390625 458.375 79.5810546875 c 128
 449.791015625 68.498046875 436.666015625 62.9560546875 419 62.9560546875 c 2
 398.75 62.9560546875 l 1
 398.75 192.581054688 l 1
 413.875 192.581054688 l 2
 433.791015625 192.581054688 448.333007812 187.560546875 457.5 177.518554688 c 128
 466.666015625 167.477539062 471.25 151.456054688 471.25 129.456054688 c 0
202.086914062 191.057617188 m 4
 219.0390625 254.326171875 334.662109375 278.21484375 460.232421875 244.568359375 c 4
 585.802734375 210.921875 673.990234375 132.422851562 657.038085938 69.154296875 c 4
 640.084960938 5.8857421875 524.462890625 -18.0029296875 398.892578125 15.6435546875 c 4
 273.322265625 49.2900390625 185.133789062 127.790039062 202.086914062 191.057617188 c 4
-17.4375 302.143554688 m 1025
EndSplineSet
EndChar

StartChar: backslash
Encoding: 92 92 44
Width: 859
VWidth: 1361
Flags: HW
LayerCount: 2
Fore
SplineSet
511.9375 127.1875 m 0
 511.9375 154.853515625 505.208007812 175.541015625 491.75 189.25 c 128
 478.291015625 202.958984375 457.853515625 209.8125 430.4375 209.8125 c 2
 391.5625 209.8125 l 1
 391.5625 41.1875 l 1
 437.8125 41.1875 l 2
 461.645507812 41.1875 479.958007812 48.625 492.75 63.5 c 128
 505.541015625 78.375 511.9375 99.603515625 511.9375 127.1875 c 0
487.9375 127.1875 m 0
 487.9375 105.021484375 483.645507812 88.396484375 475.0625 77.3125 c 128
 466.478515625 66.228515625 453.353515625 60.6875 435.6875 60.6875 c 2
 415.4375 60.6875 l 1
 415.4375 190.3125 l 1
 430.5625 190.3125 l 2
 450.478515625 190.3125 465.020507812 185.291015625 474.1875 175.25 c 128
 483.353515625 165.208984375 487.9375 149.1875 487.9375 127.1875 c 0
218.774414062 192.326171875 m 4
 235.7265625 255.595703125 351.349609375 279.484375 476.919921875 245.837890625 c 4
 602.490234375 212.19140625 690.677734375 133.69140625 673.725585938 70.423828125 c 4
 656.772460938 7.154296875 541.150390625 -16.734375 415.580078125 16.912109375 c 4
 290.009765625 50.55859375 201.821289062 129.05859375 218.774414062 192.326171875 c 4
141.75 170.875 m 1
 125 91.625 l 1
 171.25 92.125 l 1
 171.25 63.5 l 1
 119.25 63.5 l 1
 97.25 -37.375 l 1
 80 -37.375 l 1
 101.25 63.5 l 1
 50.25 63.5 l 1
 29.75 -37.375 l 1
 12.75 -37.375 l 1
 33.75 63.625 l 1
 0.25 63.5 l 1
 0 91.625 l 1
 40.25 91.875 l 1
 56.75 170.791015625 l 1
 12.75 170.875 l 1
 12.75 197.875 l 1
 62.25 197.875 l 1
 84.25 299.875 l 1
 101.25 299.875 l 1
 78.75 197.875 l 1
 130 197.875 l 1
 152 299.875 l 1
 169.25 299.875 l 1
 147.25 197.875 l 1
 181.25 197.875 l 1
 181.25 170.791015625 l 1
 141.75 170.875 l 1
73.75 170.791015625 m 1
 56.75 91.875 l 1
 107.5 91.625 l 1
 124.25 170.875 l 1
 73.75 170.791015625 l 1
-0.75 299.875 m 1025
EndSplineSet
EndChar

StartChar: bracketright
Encoding: 93 93 45
Width: 857
VWidth: 1361
Flags: HW
LayerCount: 2
Fore
SplineSet
370.0625 45.5 m 1
 490.0625 45.5 l 1
 490.0625 65 l 1
 393.9375 65 l 1
 393.9375 122.625 l 1
 477.4375 122.625 l 1
 477.4375 141.875 l 1
 393.9375 141.875 l 1
 393.9375 194.625 l 1
 484.9375 194.625 l 1
 484.9375 214.125 l 1
 370.0625 214.125 l 1
 370.0625 45.5 l 1
202.086914062 189.951171875 m 4
 219.040039062 253.219726562 334.662109375 277.108398438 460.232421875 243.462890625 c 4
 585.802734375 209.81640625 673.990234375 131.31640625 657.038085938 68.048828125 c 4
 640.0859375 4.779296875 524.462890625 -19.109375 398.892578125 14.537109375 c 4
 273.322265625 48.18359375 185.134765625 126.68359375 202.086914062 189.951171875 c 4
-17.4375 300.25 m 1025
EndSplineSet
EndChar

StartChar: asciicircum
Encoding: 94 94 46
Width: 859
VWidth: 1361
Flags: HW
HStem: 126.25 61.75<395.562 480.062>
LayerCount: 2
Fore
SplineSet
395.5625 188 m 1
 483.0625 188 l 1
 483.0625 207.5 l 1
 371.6875 207.5 l 1
 371.6875 38.875 l 1
 395.5625 38.875 l 1
 395.5625 106.5 l 1
 480.0625 106.5 l 1
 480.0625 126.25 l 1
 395.5625 126.25 l 1
 395.5625 188 l 1
202.086914062 191.951171875 m 4
 219.040039062 255.219726562 334.662109375 279.108398438 460.232421875 245.462890625 c 4
 585.802734375 211.81640625 673.990234375 133.31640625 657.038085938 70.048828125 c 4
 640.0859375 6.779296875 524.462890625 -17.109375 398.892578125 16.537109375 c 4
 273.322265625 50.18359375 185.134765625 128.68359375 202.086914062 191.951171875 c 4
-17.4375 301.25 m 1025
EndSplineSet
EndChar

StartChar: underscore
Encoding: 95 95 47
Width: 858
VWidth: 1361
Flags: HW
LayerCount: 2
Fore
SplineSet
392.25 186.625 m 1
 479.75 186.625 l 1
 479.75 206.125 l 1
 368.375 206.125 l 1
 368.375 37.5 l 1
 392.25 37.5 l 1
 392.25 105.125 l 1
 476.75 105.125 l 1
 476.75 124.875 l 1
 392.25 124.875 l 1
 392.25 186.625 l 1
198.774414062 191.326171875 m 4
 215.727539062 254.595703125 331.349609375 278.484375 456.919921875 244.837890625 c 4
 582.490234375 211.19140625 670.678710938 132.69140625 653.725585938 69.423828125 c 4
 636.7734375 6.154296875 521.150390625 -17.734375 395.580078125 15.912109375 c 4
 270.009765625 49.55859375 181.822265625 128.05859375 198.774414062 191.326171875 c 4
141.75 170.875 m 1
 125 91.625 l 1
 171.25 92.125 l 1
 171.25 63.5 l 1
 119.25 63.5 l 1
 97.25 -37.375 l 1
 80 -37.375 l 1
 101.25 63.5 l 1
 50.25 63.5 l 1
 29.75 -37.375 l 1
 12.75 -37.375 l 1
 33.75 63.625 l 1
 0.25 63.5 l 1
 0 91.625 l 1
 40.25 91.875 l 1
 56.75 170.791015625 l 1
 12.75 170.875 l 1
 12.75 197.875 l 1
 62.25 197.875 l 1
 84.25 299.875 l 1
 101.25 299.875 l 1
 78.75 197.875 l 1
 130 197.875 l 1
 152 299.875 l 1
 169.25 299.875 l 1
 147.25 197.875 l 1
 181.25 197.875 l 1
 181.25 170.791015625 l 1
 141.75 170.875 l 1
73.75 170.791015625 m 1
 56.75 91.875 l 1
 107.5 91.625 l 1
 124.25 170.875 l 1
 73.75 170.791015625 l 1
-0.75 299.875 m 1025
EndSplineSet
EndChar

StartChar: o
Encoding: 111 111 48
Width: 859
VWidth: 1361
Flags: HW
LayerCount: 2
Fore
SplineSet
-0.75 298.875 m 1029
199.774414062 191.326171875 m 0
 216.727539062 254.595703125 332.349609375 278.484375 457.919921875 244.837890625 c 0
 537.573857258 223.494669931 602.185946162 184.103119637 634.460706087 142 c 1
 859 142 l 1
 859 115 l 1
 650.463781682 115 l 1
 656.944993019 99.4887823073 658.644615483 84.049303247 654.725585938 69.423828125 c 0
 637.7734375 6.154296875 522.150390625 -17.734375 396.580078125 15.912109375 c 0
 319.295784072 36.6203862002 256.172052704 74.3191187236 223.00556782 115 c 1
 130.15181388 115 l 1
 125 90.625 l 1
 171.25 91.125 l 1
 171.25 62.5 l 1
 119.25 62.5 l 1
 97.25 -38.375 l 1
 80 -38.375 l 1
 101.25 62.5 l 1
 50.25 62.5 l 1
 29.75 -38.375 l 1
 12.75 -38.375 l 1
 33.75 62.625 l 1
 0.25 62.5 l 1
 0 90.625 l 1
 40.25 90.875 l 1
 45.294128202 115 l 1
 0 115 l 1
 0 142 l 1
 50.9393701275 142 l 1
 56.75 169.791015625 l 1
 12.75 169.875 l 1
 12.75 196.875 l 1
 62.25 196.875 l 1
 84.25 298.875 l 1
 101.25 298.875 l 1
 78.75 196.875 l 1
 130 196.875 l 1
 152 298.875 l 1
 169.25 298.875 l 1
 147.25 196.875 l 1
 181.25 196.875 l 1
 181.25 169.791015625 l 1
 141.75 169.875 l 1
 135.858438486 142 l 1
 205.695780192 142 l 1
 197.865702941 158.768165976 195.53989121 175.522392999 199.774414062 191.326171875 c 0
428.75 200.25 m 1
 436 178.5 l 1
 457.625 116 l 1
 399.75 116 l 1
 418.625 168.875 l 1
 427.25 195.375 l 1
 428.75 200.25 l 1
481 49.625 m 1
 505.25 49.625 l 1
 442.625 218.25 l 1
 415.5 218.25 l 1
 351.75 49.625 l 1
 376.25 49.625 l 1
 393.375 97.375 l 1
 463.75 97.375 l 1
 481 49.625 l 1
61.9469805717 115 m 1
 56.75 90.875 l 1
 107.5 90.625 l 1
 112.65181388 115 l 1
 61.9469805717 115 l 1
67.7632904344 142 m 1
 118.358438486 142 l 1
 124.25 169.875 l 1
 73.75 169.791015625 l 1
 67.7632904344 142 l 1
EndSplineSet
EndChar

StartChar: one
Encoding: 49 49 49
Width: 262
VWidth: 1395
Flags: HW
LayerCount: 2
Fore
SplineSet
132.825195312 764.439453125 m 6
 139.439453125 770.173828125 146.716796875 773.040039062 154.654296875 773.040039062 c 4
 160.827148438 773.040039062 167.442382812 771.0546875 174.5 767.084960938 c 4
 188.610351562 760.028320312 195.666992188 748.34375 195.666992188 732.02734375 c 6
 195.666992188 54.650390625 l 6
 195.666992188 43.625 191.810546875 34.2548828125 184.091796875 26.537109375 c 132
 176.372070312 18.818359375 167.00390625 14.9599609375 155.977539062 14.9599609375 c 132
 144.951171875 14.9599609375 135.58203125 18.818359375 127.864257812 26.537109375 c 132
 120.145507812 34.2548828125 116.287109375 43.625 116.287109375 54.650390625 c 6
 116.287109375 649.33984375 l 5
 66.013671875 605.018554688 l 6
 59.8408203125 600.168945312 52.564453125 597.7421875 44.18359375 597.7421875 c 4
 41.98046875 597.7421875 39.333984375 597.961914062 36.2451171875 598.403320312 c 4
 25.2197265625 600.168945312 16.6201171875 605.459960938 10.447265625 614.279296875 c 4
 6.0361328125 621.3359375 3.8330078125 629.274414062 3.8330078125 638.092773438 c 6
 3.8330078125 644.708007812 l 6
 5.1552734375 653.969726562 10.447265625 662.569335938 19.7080078125 670.506835938 c 6
 132.825195312 764.439453125 l 6
EndSplineSet
EndChar

StartChar: two
Encoding: 50 50 50
Width: 457
VWidth: 1396
Flags: HW
LayerCount: 2
Fore
SplineSet
138.427734375 94.1708984375 m 1
 369.291015625 94.1708984375 l 2
 381.198242188 94.1708984375 390.678710938 90.4208984375 397.735351562 82.92578125 c 0
 405.23046875 75.4296875 408.98046875 65.9462890625 408.98046875 54.4814453125 c 128
 408.98046875 43.0166015625 405.23046875 33.5322265625 397.735351562 26.037109375 c 128
 390.239257812 18.541015625 380.755859375 14.791015625 369.291015625 14.791015625 c 2
 60.3701171875 14.791015625 l 2
 52.4326171875 14.791015625 44.052734375 17.65625 35.2333984375 23.390625 c 0
 27.2958984375 29.125 22.4453125 37.501953125 20.6806640625 48.52734375 c 0
 20.23828125 50.7314453125 20.01953125 52.939453125 20.01953125 55.142578125 c 0
 20.01953125 63.5234375 22.8837890625 71.23828125 28.6181640625 78.2958984375 c 2
 294.541992188 439.474609375 l 2
 317.9140625 470.345703125 329.6015625 507.828125 329.6015625 551.928710938 c 0
 329.6015625 594.70703125 315.928710938 630.866210938 288.587890625 660.415039062 c 0
 268.743164062 682.025390625 244.047851562 692.829101562 214.5 692.829101562 c 0
 186.716796875 692.829101562 161.799804688 681.583984375 139.75 659.091796875 c 0
 113.291015625 632.6328125 100.060546875 597.130859375 100.060546875 552.590820312 c 2
 100.060546875 551.928710938 l 2
 100.060546875 540.903320312 96.203125 531.534179688 88.484375 523.815429688 c 128
 80.765625 516.096679688 71.396484375 512.239257812 60.3701171875 512.239257812 c 128
 49.3447265625 512.239257812 39.9755859375 516.096679688 32.255859375 523.815429688 c 128
 24.5380859375 531.534179688 20.6806640625 540.903320312 20.6806640625 551.928710938 c 2
 20.6806640625 552.590820312 l 2
 20.6806640625 619.62109375 41.62890625 673.864257812 83.5224609375 715.3203125 c 0
 121.448242188 753.245117188 165.329101562 772.208984375 215.161132812 772.208984375 c 0
 268.08203125 772.208984375 312.182617188 752.805664062 347.4609375 713.997070312 c 0
 388.474609375 669.014648438 408.98046875 614.772460938 408.98046875 551.267578125 c 0
 408.98046875 490.41015625 391.782226562 437.046875 357.383789062 391.184570312 c 2
 138.427734375 94.1708984375 l 1
EndSplineSet
EndChar

StartChar: three
Encoding: 51 51 51
Width: 478
VWidth: 1396
Flags: HW
LayerCount: 2
Fore
SplineSet
345.647460938 442.12109375 m 1
 356.231445312 433.739257812 366.814453125 423.15625 377.400390625 410.369140625 c 0
 413.120117188 365.829101562 430.98046875 310.702148438 430.98046875 244.994140625 c 0
 430.98046875 179.724609375 412.901367188 125.04296875 376.737304688 80.94140625 c 0
 341.016601562 37.2822265625 294.26953125 15.453125 236.5 15.453125 c 0
 176.522460938 15.453125 129.337890625 38.1630859375 94.939453125 83.5869140625 c 0
 59.66015625 129.44921875 42.01953125 187.223632812 42.01953125 256.900390625 c 0
 42.01953125 267.926757812 45.876953125 277.295898438 53.595703125 285.014648438 c 128
 61.314453125 292.732421875 70.7939453125 296.58984375 82.0390625 296.58984375 c 128
 93.2861328125 296.58984375 102.765625 292.732421875 110.484375 285.014648438 c 128
 118.203125 277.295898438 122.060546875 267.926757812 122.060546875 256.900390625 c 0
 122.060546875 205.74609375 132.86328125 165.83203125 154.473632812 137.168945312 c 0
 175.641601562 108.943359375 202.983398438 94.8330078125 236.5 94.8330078125 c 0
 268.694335938 94.8330078125 295.815429688 108.282226562 317.865234375 135.184570312 c 128
 339.9140625 162.086914062 350.939453125 198.688476562 350.939453125 244.994140625 c 0
 350.939453125 291.740234375 340.024414062 329.00390625 318.196289062 356.787109375 c 128
 296.365234375 384.5703125 268.470703125 398.4609375 234.515625 398.4609375 c 2
 221.946289062 398.4609375 l 2
 210.920898438 398.4609375 201.551757812 402.4296875 193.833984375 410.369140625 c 128
 186.114257812 418.306640625 182.256835938 427.6796875 182.256835938 438.481445312 c 128
 182.256835938 449.28515625 186.114257812 458.545898438 193.833984375 466.264648438 c 128
 201.551757812 473.984375 210.920898438 477.841796875 221.946289062 477.841796875 c 2
 234.515625 477.841796875 l 1
 242.453125 477.841796875 l 2
 264.063476562 477.841796875 282.143554688 487.1015625 296.696289062 505.624023438 c 0
 312.130859375 526.349609375 319.848632812 553.470703125 319.848632812 586.989257812 c 128
 319.848632812 620.505859375 312.130859375 646.412109375 296.696289062 664.71484375 c 128
 281.262695312 683.017578125 261.194335938 692.166992188 236.5 692.166992188 c 0
 211.362304688 692.166992188 190.415039062 682.90625 173.658203125 664.384765625 c 0
 156.458007812 646.303710938 147.859375 620.505859375 147.859375 586.989257812 c 0
 147.859375 575.961914062 144.001953125 566.59375 136.283203125 558.875 c 128
 128.564453125 551.15625 119.1953125 547.298828125 108.168945312 547.298828125 c 128
 97.1435546875 547.298828125 87.7744140625 551.15625 80.0546875 558.875 c 128
 72.3369140625 566.59375 68.4794921875 575.961914062 68.4794921875 586.989257812 c 0
 68.4794921875 640.350585938 84.3544921875 684.448242188 116.106445312 719.2890625 c 128
 147.859375 754.12890625 187.9921875 771.546875 236.5 771.546875 c 0
 285.892578125 771.546875 325.360351562 754.017578125 354.908203125 718.958007812 c 128
 384.45703125 683.897460938 399.229492188 639.908203125 399.229492188 586.989257812 c 128
 399.229492188 534.068359375 384.45703125 488.8671875 354.908203125 451.380859375 c 0
 352.262695312 448.293945312 349.174804688 445.208007812 345.647460938 442.12109375 c 1
EndSplineSet
EndChar

StartChar: four
Encoding: 52 52 52
Width: 482
VWidth: 1398
Flags: HW
LayerCount: 2
Fore
SplineSet
281.762695312 326.880859375 m 1
 281.762695312 576.266601562 l 1
 152.770507812 324.235351562 l 1
 281.762695312 326.880859375 l 1
357.173828125 326.880859375 m 1
 402.817382812 326.880859375 l 2
 413.84375 326.880859375 423.211914062 323.0234375 430.931640625 315.303710938 c 128
 438.650390625 307.5859375 442.5078125 298.216796875 442.5078125 287.19140625 c 128
 442.5078125 276.165039062 438.650390625 266.795898438 430.931640625 259.077148438 c 128
 423.211914062 251.358398438 413.84375 247.500976562 402.817382812 247.500976562 c 2
 357.173828125 247.500976562 l 1
 357.173828125 58.3125 l 2
 357.173828125 47.28515625 353.31640625 37.916015625 345.598632812 30.1982421875 c 128
 337.87890625 22.4794921875 328.509765625 18.6220703125 317.484375 18.6220703125 c 128
 306.458007812 18.6220703125 297.088867188 22.4794921875 289.37109375 30.1982421875 c 128
 281.651367188 37.916015625 277.793945312 47.28515625 277.793945312 58.3125 c 2
 277.793945312 247.500976562 l 1
 78.6826171875 247.500976562 l 2
 62.806640625 247.500976562 51.1181640625 253.673828125 43.623046875 266.022460938 c 0
 40.53515625 270.873046875 38.9921875 276.387695312 38.9921875 282.560546875 c 0
 38.9921875 290.055664062 41.1953125 297.994140625 45.607421875 306.375 c 2
 284.409179688 758.1796875 l 2
 288.377929688 765.674804688 294.993164062 770.748046875 304.254882812 773.393554688 c 0
 309.103515625 774.716796875 313.734375 775.377929688 318.145507812 775.377929688 c 0
 322.115234375 775.377929688 325.864257812 774.935546875 329.390625 774.0546875 c 0
 338.209960938 771.409179688 345.047851562 766.778320312 349.897460938 760.1640625 c 0
 354.748046875 753.991210938 357.173828125 745.830078125 357.173828125 735.6875 c 2
 357.173828125 326.880859375 l 1
EndSplineSet
EndChar

StartChar: five
Encoding: 53 53 53
Width: 473
VWidth: 1397
Flags: HW
LayerCount: 2
Fore
SplineSet
42.95703125 177.3515625 m 0
 42.076171875 182.643554688 41.853515625 185.731445312 42.2958984375 186.612304688 c 0
 48.46875 212.19140625 61.6982421875 225.421875 81.9853515625 226.301757812 c 2
 83.3076171875 226.301757812 l 2
 98.3046875 226.301757812 110.873046875 215.9375 121.014648438 195.2109375 c 1
 128.071289062 163.017578125 138.875 140.526367188 153.427734375 127.73828125 c 0
 179.006835938 105.248046875 204.58203125 94.001953125 230.161132812 94.001953125 c 0
 257.063476562 94.001953125 281.540039062 104.805664062 303.587890625 126.416015625 c 0
 330.928710938 153.318359375 344.6015625 190.138671875 344.6015625 236.885742188 c 0
 344.6015625 319.79296875 331.8125 373.59765625 306.234375 398.291992188 c 0
 283.30078125 420.340820312 258.1640625 431.3671875 230.822265625 431.3671875 c 0
 203.920898438 431.3671875 178.783203125 420.340820312 155.412109375 398.291992188 c 0
 133.802734375 378.004882812 119.69140625 357.279296875 113.076171875 336.110351562 c 0
 111.310546875 327.73046875 107.341796875 321.338867188 101.168945312 316.927734375 c 0
 92.7890625 310.3125 83.3076171875 307.004882812 72.724609375 307.004882812 c 0
 61.259765625 307.004882812 51.9990234375 311.416992188 44.9423828125 320.235351562 c 0
 38.3271484375 328.614257812 35.01953125 338.095703125 35.01953125 348.6796875 c 2
 50.2333984375 734.333984375 l 2
 50.2333984375 744.91796875 54.2021484375 753.737304688 62.140625 760.793945312 c 128
 70.078125 767.850585938 79.33984375 771.377929688 89.9228515625 771.377929688 c 2
 365.108398438 771.377929688 l 2
 376.133789062 771.377929688 385.501953125 767.520507812 393.220703125 759.801757812 c 128
 400.940429688 752.083984375 404.797851562 742.822265625 404.797851562 732.018554688 c 128
 404.797851562 721.21484375 400.940429688 711.842773438 393.220703125 703.904296875 c 128
 385.501953125 695.966796875 376.133789062 691.998046875 365.108398438 691.998046875 c 2
 126.966796875 691.998046875 l 1
 119.029296875 471.717773438 l 1
 150.33984375 497.736328125 187.606445312 510.747070312 230.822265625 510.747070312 c 0
 279.33203125 510.747070312 322.991210938 492.224609375 361.799804688 455.180664062 c 0
 403.254882812 415.048828125 423.98046875 342.506835938 423.98046875 237.547851562 c 0
 423.98046875 168.751953125 402.59375 113.185546875 359.814453125 70.849609375 c 0
 322.330078125 33.36328125 279.5546875 14.6220703125 231.484375 14.6220703125 c 0
 182.974609375 14.6220703125 138.875 33.14453125 99.1845703125 70.1875 c 0
 72.724609375 94.4443359375 53.982421875 130.165039062 42.95703125 177.3515625 c 0
EndSplineSet
EndChar

